solid OpenSCAD_Model
  facet normal 0 0 -1
    outer loop
      vertex -62.82628428702616 -29.191530131557094 0
      vertex -62.14805029709527 -29.583108708217246 0
      vertex -62.5 -29.409546322036704 0
    endloop
  endfacet
  facet normal 0 0 -1
    outer loop
      vertex -63.121320343559645 -28.93279045424303 0
      vertex -62.14805029709527 -29.583108708217246 0
      vertex -62.82628428702616 -29.191530131557094 0
    endloop
  endfacet
  facet normal 0 0 -1
    outer loop
      vertex -63.598076211353316 -28.311470110683388 0
      vertex -62.14805029709527 -29.583108708217246 0
      vertex -63.121320343559645 -28.93279045424303 0
    endloop
  endfacet
  facet normal 0 0 -1
    outer loop
      vertex -63.598076211353316 -28.311470110683388 0
      vertex -63.121320343559645 -28.93279045424303 0
      vertex -63.38006002087371 -28.63775439770955 0
    endloop
  endfacet
  facet normal 0 0 -1
    outer loop
      vertex -63.897777478867205 -27.58792724599095 0
      vertex -63.598076211353316 -28.311470110683388 0
      vertex -63.77163859753386 -27.95952040777866 0
    endloop
  endfacet
  facet normal 0 0 -1
    outer loop
      vertex -64 -26.811470110683388 0
      vertex -62.14805029709527 -29.583108708217246 0
      vertex -63.598076211353316 -28.311470110683388 0
    endloop
  endfacet
  facet normal 0 0 -1
    outer loop
      vertex -62.14805029709527 -29.583108708217246 0
      vertex -61 -29.811470110683388 0
      vertex -61.77645713530756 -29.709247589550593 0
    endloop
  endfacet
  facet normal 0 0 -1
    outer loop
      vertex -61.77645713530756 -29.709247589550593 0
      vertex -61 -29.811470110683388 0
      vertex -61.39157857666015 -29.785804694804817 0
    endloop
  endfacet
  facet normal 0 0 -1
    outer loop
      vertex -64 -26.811470110683388 0
      vertex -63.598076211353316 -28.311470110683388 0
      vertex -63.897777478867205 -27.58792724599095 0
    endloop
  endfacet
  facet normal 0 0 -1
    outer loop
      vertex -64 -26.811470110683388 0
      vertex -63.897777478867205 -27.58792724599095 0
      vertex -63.97433458412143 -27.203048687343543 0
    endloop
  endfacet
  facet normal -0.44228869021899464 -0.8968727415326915 3.0459650416730136e-18
    outer loop
      vertex -62.14805029709527 -29.583108708217246 0
      vertex -62.5 -29.409546322036704 2
      vertex -62.5 -29.409546322036704 0
    endloop
  endfacet
  facet normal -0.5555702330196001 -0.8314696123025467 0
    outer loop
      vertex -62.5 -29.409546322036704 2
      vertex -62.82628428702616 -29.191530131557094 0
      vertex -62.5 -29.409546322036704 0
    endloop
  endfacet
  facet normal -0.659345815100068 -0.751839807478978 0
    outer loop
      vertex -62.82628428702616 -29.191530131557094 2
      vertex -63.121320343559645 -28.93279045424303 0
      vertex -62.82628428702616 -29.191530131557094 0
    endloop
  endfacet
  facet normal -0.7518398074789787 -0.6593458151000674 4.325119236396391e-18
    outer loop
      vertex -63.121320343559645 -28.93279045424303 0
      vertex -63.38006002087371 -28.63775439770955 2
      vertex -63.38006002087371 -28.63775439770955 0
    endloop
  endfacet
  facet normal -0.8314696123025467 -0.5555702330196001 0
    outer loop
      vertex -63.38006002087371 -28.63775439770955 2
      vertex -63.598076211353316 -28.311470110683388 0
      vertex -63.38006002087371 -28.63775439770955 0
    endloop
  endfacet
  facet normal -0.8968727415326898 -0.44228869021899825 1.8430486700497294e-18
    outer loop
      vertex -63.598076211353316 -28.311470110683388 0
      vertex -63.77163859753386 -27.95952040777866 2
      vertex -63.77163859753386 -27.95952040777866 0
    endloop
  endfacet
  facet normal -0.32143946530316636 -0.9469301294951041 0
    outer loop
      vertex -61.77645713530756 -29.709247589550593 2
      vertex -62.14805029709527 -29.583108708217246 0
      vertex -61.77645713530756 -29.709247589550593 0
    endloop
  endfacet
  facet normal -0.19509032201612275 -0.9807852804032315 0
    outer loop
      vertex -61.39157857666015 -29.785804694804817 2
      vertex -61.77645713530756 -29.709247589550593 0
      vertex -61.39157857666015 -29.785804694804817 0
    endloop
  endfacet
  facet normal -0.0654031292301486 -0.997858923238603 6.801186623393557e-19
    outer loop
      vertex -61 -29.811470110683388 0
      vertex -61.39157857666015 -29.785804694804817 2
      vertex -61.39157857666015 -29.785804694804817 0
    endloop
  endfacet
  facet normal -0.9469301294951041 -0.32143946530316636 0
    outer loop
      vertex -63.77163859753386 -27.95952040777866 2
      vertex -63.897777478867205 -27.58792724599095 0
      vertex -63.77163859753386 -27.95952040777866 0
    endloop
  endfacet
  facet normal -0.9807852804032315 -0.19509032201612275 2.860716071401304e-19
    outer loop
      vertex -63.897777478867205 -27.58792724599095 0
      vertex -63.97433458412143 -27.203048687343543 2
      vertex -63.97433458412143 -27.203048687343543 0
    endloop
  endfacet
  facet normal -0.9978589232386033 -0.06540312923014802 0
    outer loop
      vertex -63.97433458412143 -27.203048687343543 2
      vertex -64 -26.811470110683388 0
      vertex -63.97433458412143 -27.203048687343543 0
    endloop
  endfacet
  facet normal 0 0 -1
    outer loop
      vertex -64 26.811470110683388 0
      vertex -62.14805029709527 -29.583108708217246 0
      vertex -64 -26.811470110683388 0
    endloop
  endfacet
  facet normal -1 0 0
    outer loop
      vertex -64 -26.811470110683388 2
      vertex -64 26.811470110683388 0
      vertex -64 -26.811470110683388 0
    endloop
  endfacet
  facet normal 0 0 -1
    outer loop
      vertex -62.14805029709527 -29.583108708217246 0
      vertex 62.14805029709527 -29.583108708217246 0
      vertex -61 -29.811470110683388 0
    endloop
  endfacet
  facet normal 0 0 -1
    outer loop
      vertex -61 29.811470110683388 0
      vertex 64 -26.811470110683388 0
      vertex -62.14805029709527 -29.583108708217246 0
    endloop
  endfacet
  facet normal -0.659345815100068 -0.751839807478978 0
    outer loop
      vertex -63.121320343559645 -28.93279045424303 2
      vertex -63.121320343559645 -28.93279045424303 0
      vertex -62.82628428702616 -29.191530131557094 2
    endloop
  endfacet
  facet normal -0.32143946530316636 -0.9469301294951041 0
    outer loop
      vertex -62.14805029709527 -29.583108708217246 2
      vertex -62.14805029709527 -29.583108708217246 0
      vertex -61.77645713530756 -29.709247589550593 2
    endloop
  endfacet
  facet normal -0.44228869021899464 -0.8968727415326915 0
    outer loop
      vertex -62.14805029709527 -29.583108708217246 0
      vertex -62.14805029709527 -29.583108708217246 2
      vertex -62.5 -29.409546322036704 2
    endloop
  endfacet
  facet normal -0.5555702330196001 -0.8314696123025467 0
    outer loop
      vertex -62.82628428702616 -29.191530131557094 2
      vertex -62.82628428702616 -29.191530131557094 0
      vertex -62.5 -29.409546322036704 2
    endloop
  endfacet
  facet normal -0.8314696123025467 -0.5555702330196001 0
    outer loop
      vertex -63.598076211353316 -28.311470110683388 2
      vertex -63.598076211353316 -28.311470110683388 0
      vertex -63.38006002087371 -28.63775439770955 2
    endloop
  endfacet
  facet normal -0.7518398074789787 -0.6593458151000674 0
    outer loop
      vertex -63.121320343559645 -28.93279045424303 0
      vertex -63.121320343559645 -28.93279045424303 2
      vertex -63.38006002087371 -28.63775439770955 2
    endloop
  endfacet
  facet normal -0.8968727415326898 -0.44228869021899825 0
    outer loop
      vertex -63.598076211353316 -28.311470110683388 0
      vertex -63.598076211353316 -28.311470110683388 2
      vertex -63.77163859753386 -27.95952040777866 2
    endloop
  endfacet
  facet normal -0.19509032201612275 -0.9807852804032315 0
    outer loop
      vertex -61.77645713530756 -29.709247589550593 2
      vertex -61.77645713530756 -29.709247589550593 0
      vertex -61.39157857666015 -29.785804694804817 2
    endloop
  endfacet
  facet normal -0.0654031292301486 -0.997858923238603 0
    outer loop
      vertex -61 -29.811470110683388 0
      vertex -61 -29.811470110683388 2
      vertex -61.39157857666015 -29.785804694804817 2
    endloop
  endfacet
  facet normal -0.9469301294951041 -0.32143946530316636 0
    outer loop
      vertex -63.897777478867205 -27.58792724599095 2
      vertex -63.897777478867205 -27.58792724599095 0
      vertex -63.77163859753386 -27.95952040777866 2
    endloop
  endfacet
  facet normal -0.9807852804032315 -0.19509032201612275 0
    outer loop
      vertex -63.897777478867205 -27.58792724599095 2
      vertex -63.97433458412143 -27.203048687343543 2
      vertex -63.897777478867205 -27.58792724599095 0
    endloop
  endfacet
  facet normal -0.9978589232386033 -0.06540312923014802 0
    outer loop
      vertex -64 -26.811470110683388 2
      vertex -64 -26.811470110683388 0
      vertex -63.97433458412143 -27.203048687343543 2
    endloop
  endfacet
  facet normal 0 0 1
    outer loop
      vertex -62.14805029709527 -29.583108708217246 2
      vertex -62.82628428702616 -29.191530131557094 2
      vertex -62.5 -29.409546322036704 2
    endloop
  endfacet
  facet normal 0 0 1
    outer loop
      vertex -62.14805029709527 -29.583108708217246 2
      vertex -63.121320343559645 -28.93279045424303 2
      vertex -62.82628428702616 -29.191530131557094 2
    endloop
  endfacet
  facet normal 0 0 1
    outer loop
      vertex -62.14805029709527 -29.583108708217246 2
      vertex -63.598076211353316 -28.311470110683388 2
      vertex -63.121320343559645 -28.93279045424303 2
    endloop
  endfacet
  facet normal 0 0 1
    outer loop
      vertex -63.598076211353316 -28.311470110683388 2
      vertex -63.38006002087371 -28.63775439770955 2
      vertex -63.121320343559645 -28.93279045424303 2
    endloop
  endfacet
  facet normal 0 0 1
    outer loop
      vertex -63.598076211353316 -28.311470110683388 2
      vertex -63.897777478867205 -27.58792724599095 2
      vertex -63.77163859753386 -27.95952040777866 2
    endloop
  endfacet
  facet normal 0 0 1
    outer loop
      vertex -62.14805029709527 -29.583108708217246 2
      vertex -64 -26.811470110683388 2
      vertex -63.598076211353316 -28.311470110683388 2
    endloop
  endfacet
  facet normal 0 0 1
    outer loop
      vertex -61 -29.811470110683388 2
      vertex -62.14805029709527 -29.583108708217246 2
      vertex -61.77645713530756 -29.709247589550593 2
    endloop
  endfacet
  facet normal 0 0 1
    outer loop
      vertex -61 -29.811470110683388 2
      vertex -61.77645713530756 -29.709247589550593 2
      vertex -61.39157857666015 -29.785804694804817 2
    endloop
  endfacet
  facet normal 0 0 1
    outer loop
      vertex -64 -26.811470110683388 2
      vertex -63.897777478867205 -27.58792724599095 2
      vertex -63.598076211353316 -28.311470110683388 2
    endloop
  endfacet
  facet normal 0 0 1
    outer loop
      vertex -63.897777478867205 -27.58792724599095 2
      vertex -64 -26.811470110683388 2
      vertex -63.97433458412143 -27.203048687343543 2
    endloop
  endfacet
  facet normal 0 0 1
    outer loop
      vertex -62.14805029709527 -29.583108708217246 2
      vertex -62.14805029709527 29.583108708217246 2
      vertex -64 -26.811470110683388 2
    endloop
  endfacet
  facet normal 0 -1 0
    outer loop
      vertex -61 -29.811470110683388 2
      vertex -61 -29.811470110683388 0
      vertex 61 -29.811470110683388 2
    endloop
  endfacet
  facet normal 0 0 1
    outer loop
      vertex 62.14805029709527 -29.583108708217246 2
      vertex -62.14805029709527 -29.583108708217246 2
      vertex -61 -29.811470110683388 2
    endloop
  endfacet
  facet normal 0 0 -1
    outer loop
      vertex -61 29.811470110683388 0
      vertex -62.14805029709527 -29.583108708217246 0
      vertex -64 26.811470110683388 0
    endloop
  endfacet
  facet normal 0 0 -1
    outer loop
      vertex -63.897777478867205 27.58792724599095 0
      vertex -64 26.811470110683388 0
      vertex -63.97433458412143 27.203048687343543 0
    endloop
  endfacet
  facet normal 0 0 -1
    outer loop
      vertex -63.77163859753386 27.95952040777866 0
      vertex -64 26.811470110683388 0
      vertex -63.897777478867205 27.58792724599095 0
    endloop
  endfacet
  facet normal 0 0 -1
    outer loop
      vertex -63.121320343559645 28.93279045424303 0
      vertex -64 26.811470110683388 0
      vertex -63.77163859753386 27.95952040777866 0
    endloop
  endfacet
  facet normal 0 0 -1
    outer loop
      vertex -63.38006002087371 28.63775439770955 0
      vertex -63.77163859753386 27.95952040777866 0
      vertex -63.598076211353316 28.311470110683388 0
    endloop
  endfacet
  facet normal 0 0 -1
    outer loop
      vertex -63.121320343559645 28.93279045424303 0
      vertex -63.77163859753386 27.95952040777866 0
      vertex -63.38006002087371 28.63775439770955 0
    endloop
  endfacet
  facet normal 0 0 -1
    outer loop
      vertex -61 29.811470110683388 0
      vertex -64 26.811470110683388 0
      vertex -63.121320343559645 28.93279045424303 0
    endloop
  endfacet
  facet normal 0 0 -1
    outer loop
      vertex -62.5 29.409546322036704 0
      vertex -63.121320343559645 28.93279045424303 0
      vertex -62.82628428702616 29.191530131557094 0
    endloop
  endfacet
  facet normal 0 0 -1
    outer loop
      vertex -62.14805029709527 29.583108708217246 0
      vertex -63.121320343559645 28.93279045424303 0
      vertex -62.5 29.409546322036704 0
    endloop
  endfacet
  facet normal 0 0 -1
    outer loop
      vertex -61 29.811470110683388 0
      vertex -63.121320343559645 28.93279045424303 0
      vertex -62.14805029709527 29.583108708217246 0
    endloop
  endfacet
  facet normal 0 0 -1
    outer loop
      vertex -61 29.811470110683388 0
      vertex -62.14805029709527 29.583108708217246 0
      vertex -61.77645713530756 29.709247589550593 0
    endloop
  endfacet
  facet normal 0 0 -1
    outer loop
      vertex -61 29.811470110683388 0
      vertex -61.77645713530756 29.709247589550593 0
      vertex -61.39157857666015 29.785804694804817 0
    endloop
  endfacet
  facet normal -0.9978589232386033 0.06540312923014802 5.637735446025632e-19
    outer loop
      vertex -64 26.811470110683388 0
      vertex -63.97433458412143 27.203048687343543 2
      vertex -63.97433458412143 27.203048687343543 0
    endloop
  endfacet
  facet normal -0.9807852804032315 0.19509032201612275 0
    outer loop
      vertex -63.97433458412143 27.203048687343543 2
      vertex -63.897777478867205 27.58792724599095 0
      vertex -63.97433458412143 27.203048687343543 0
    endloop
  endfacet
  facet normal -0.9469301294951041 0.32143946530316636 0
    outer loop
      vertex -63.897777478867205 27.58792724599095 2
      vertex -63.77163859753386 27.95952040777866 0
      vertex -63.897777478867205 27.58792724599095 0
    endloop
  endfacet
  facet normal -0.8968727415326898 0.44228869021899825 -1.8430486700497294e-18
    outer loop
      vertex -63.77163859753386 27.95952040777866 0
      vertex -63.598076211353316 28.311470110683388 2
      vertex -63.598076211353316 28.311470110683388 0
    endloop
  endfacet
  facet normal -0.8314696123025467 0.5555702330196001 0
    outer loop
      vertex -63.598076211353316 28.311470110683388 2
      vertex -63.38006002087371 28.63775439770955 0
      vertex -63.598076211353316 28.311470110683388 0
    endloop
  endfacet
  facet normal -0.7518398074789787 0.6593458151000674 0
    outer loop
      vertex -63.121320343559645 28.93279045424303 0
      vertex -63.38006002087371 28.63775439770955 0
      vertex -63.121320343559645 28.93279045424303 2
    endloop
  endfacet
  facet normal -0.659345815100068 0.751839807478978 -8.452398924469889e-18
    outer loop
      vertex -63.121320343559645 28.93279045424303 0
      vertex -62.82628428702616 29.191530131557094 2
      vertex -62.82628428702616 29.191530131557094 0
    endloop
  endfacet
  facet normal -0.5555702330196001 0.8314696123025467 0
    outer loop
      vertex -62.82628428702616 29.191530131557094 2
      vertex -62.5 29.409546322036704 0
      vertex -62.82628428702616 29.191530131557094 0
    endloop
  endfacet
  facet normal -0.44228869021899464 0.8968727415326915 0
    outer loop
      vertex -62.14805029709527 29.583108708217246 2
      vertex -62.14805029709527 29.583108708217246 0
      vertex -62.5 29.409546322036704 0
    endloop
  endfacet
  facet normal -0.32143946530316636 0.9469301294951041 0
    outer loop
      vertex -62.14805029709527 29.583108708217246 0
      vertex -62.14805029709527 29.583108708217246 2
      vertex -61.77645713530756 29.709247589550593 0
    endloop
  endfacet
  facet normal -0.19509032201612275 0.9807852804032315 -2.860716071401304e-19
    outer loop
      vertex -61.77645713530756 29.709247589550593 0
      vertex -61.39157857666015 29.785804694804817 2
      vertex -61.39157857666015 29.785804694804817 0
    endloop
  endfacet
  facet normal -0.0654031292301486 0.997858923238603 0
    outer loop
      vertex -61.39157857666015 29.785804694804817 2
      vertex -61 29.811470110683388 0
      vertex -61.39157857666015 29.785804694804817 0
    endloop
  endfacet
  facet normal 0 1 0
    outer loop
      vertex -61 29.811470110683388 0
      vertex -61 29.811470110683388 2
      vertex 61 29.811470110683388 0
    endloop
  endfacet
  facet normal -1 0 0
    outer loop
      vertex -64 26.811470110683388 0
      vertex -64 -26.811470110683388 2
      vertex -64 26.811470110683388 2
    endloop
  endfacet
  facet normal 0 0 1
    outer loop
      vertex -64 -26.811470110683388 2
      vertex -63.598076211353316 28.311470110683388 2
      vertex -64 26.811470110683388 2
    endloop
  endfacet
  facet normal 0 0 1
    outer loop
      vertex -64 -26.811470110683388 2
      vertex -62.14805029709527 29.583108708217246 2
      vertex -63.598076211353316 28.311470110683388 2
    endloop
  endfacet
  facet normal -0.9978589232386033 0.06540312923014802 0
    outer loop
      vertex -64 26.811470110683388 0
      vertex -64 26.811470110683388 2
      vertex -63.97433458412143 27.203048687343543 2
    endloop
  endfacet
  facet normal -0.9807852804032315 0.19509032201612275 0
    outer loop
      vertex -63.897777478867205 27.58792724599095 2
      vertex -63.897777478867205 27.58792724599095 0
      vertex -63.97433458412143 27.203048687343543 2
    endloop
  endfacet
  facet normal -0.9469301294951041 0.32143946530316636 0
    outer loop
      vertex -63.77163859753386 27.95952040777866 0
      vertex -63.897777478867205 27.58792724599095 2
      vertex -63.77163859753386 27.95952040777866 2
    endloop
  endfacet
  facet normal -0.8968727415326898 0.44228869021899825 -1.8430486700497294e-18
    outer loop
      vertex -63.598076211353316 28.311470110683388 2
      vertex -63.77163859753386 27.95952040777866 0
      vertex -63.77163859753386 27.95952040777866 2
    endloop
  endfacet
  facet normal -0.8314696123025467 0.5555702330196001 0
    outer loop
      vertex -63.38006002087371 28.63775439770955 0
      vertex -63.598076211353316 28.311470110683388 2
      vertex -63.38006002087371 28.63775439770955 2
    endloop
  endfacet
  facet normal -0.7518398074789787 0.6593458151000674 -4.325119236396391e-18
    outer loop
      vertex -63.121320343559645 28.93279045424303 2
      vertex -63.38006002087371 28.63775439770955 0
      vertex -63.38006002087371 28.63775439770955 2
    endloop
  endfacet
  facet normal -0.659345815100068 0.751839807478978 0
    outer loop
      vertex -63.121320343559645 28.93279045424303 0
      vertex -63.121320343559645 28.93279045424303 2
      vertex -62.82628428702616 29.191530131557094 2
    endloop
  endfacet
  facet normal -0.5555702330196001 0.8314696123025467 0
    outer loop
      vertex -62.5 29.409546322036704 0
      vertex -62.82628428702616 29.191530131557094 2
      vertex -62.5 29.409546322036704 2
    endloop
  endfacet
  facet normal -0.44228869021899464 0.8968727415326915 -3.0459650416730136e-18
    outer loop
      vertex -62.14805029709527 29.583108708217246 2
      vertex -62.5 29.409546322036704 0
      vertex -62.5 29.409546322036704 2
    endloop
  endfacet
  facet normal -0.32143946530316636 0.9469301294951041 0
    outer loop
      vertex -61.77645713530756 29.709247589550593 0
      vertex -62.14805029709527 29.583108708217246 2
      vertex -61.77645713530756 29.709247589550593 2
    endloop
  endfacet
  facet normal -0.19509032201612275 0.9807852804032315 -2.860716071401304e-19
    outer loop
      vertex -61.39157857666015 29.785804694804817 2
      vertex -61.77645713530756 29.709247589550593 0
      vertex -61.77645713530756 29.709247589550593 2
    endloop
  endfacet
  facet normal -0.0654031292301486 0.997858923238603 0
    outer loop
      vertex -61 29.811470110683388 2
      vertex -61 29.811470110683388 0
      vertex -61.39157857666015 29.785804694804817 2
    endloop
  endfacet
  facet normal 0 0 1
    outer loop
      vertex -64 26.811470110683388 2
      vertex -63.897777478867205 27.58792724599095 2
      vertex -63.97433458412143 27.203048687343543 2
    endloop
  endfacet
  facet normal 0 0 1
    outer loop
      vertex -63.897777478867205 27.58792724599095 2
      vertex -64 26.811470110683388 2
      vertex -63.598076211353316 28.311470110683388 2
    endloop
  endfacet
  facet normal 0 0 1
    outer loop
      vertex -63.897777478867205 27.58792724599095 2
      vertex -63.598076211353316 28.311470110683388 2
      vertex -63.77163859753386 27.95952040777866 2
    endloop
  endfacet
  facet normal 0 0 1
    outer loop
      vertex -63.598076211353316 28.311470110683388 2
      vertex -63.121320343559645 28.93279045424303 2
      vertex -63.38006002087371 28.63775439770955 2
    endloop
  endfacet
  facet normal 0 0 1
    outer loop
      vertex -63.598076211353316 28.311470110683388 2
      vertex -62.82628428702616 29.191530131557094 2
      vertex -63.121320343559645 28.93279045424303 2
    endloop
  endfacet
  facet normal 0 0 1
    outer loop
      vertex -62.82628428702616 29.191530131557094 2
      vertex -63.598076211353316 28.311470110683388 2
      vertex -62.14805029709527 29.583108708217246 2
    endloop
  endfacet
  facet normal 0 0 1
    outer loop
      vertex -62.82628428702616 29.191530131557094 2
      vertex -62.14805029709527 29.583108708217246 2
      vertex -62.5 29.409546322036704 2
    endloop
  endfacet
  facet normal 0 0 1
    outer loop
      vertex -62.14805029709527 29.583108708217246 2
      vertex -61.39157857666015 29.785804694804817 2
      vertex -61.77645713530756 29.709247589550593 2
    endloop
  endfacet
  facet normal 0 0 1
    outer loop
      vertex -62.14805029709527 29.583108708217246 2
      vertex -61 29.811470110683388 2
      vertex -61.39157857666015 29.785804694804817 2
    endloop
  endfacet
  facet normal 0 0 1
    outer loop
      vertex -62.14805029709527 -29.583108708217246 2
      vertex 62.14805029709527 29.583108708217246 2
      vertex -62.14805029709527 29.583108708217246 2
    endloop
  endfacet
  facet normal 0 0 1
    outer loop
      vertex -62.14805029709527 29.583108708217246 2
      vertex 62.14805029709527 29.583108708217246 2
      vertex -61 29.811470110683388 2
    endloop
  endfacet
  facet normal 0 0 -1
    outer loop
      vertex -61 -29.811470110683388 0
      vertex 62.14805029709527 -29.583108708217246 0
      vertex 61 -29.811470110683388 0
    endloop
  endfacet
  facet normal 0 0 -1
    outer loop
      vertex -62.14805029709527 -29.583108708217246 0
      vertex 64 -26.811470110683388 0
      vertex 62.14805029709527 -29.583108708217246 0
    endloop
  endfacet
  facet normal 0 -1 0
    outer loop
      vertex -61 -29.811470110683388 0
      vertex 61 -29.811470110683388 0
      vertex 61 -29.811470110683388 2
    endloop
  endfacet
  facet normal 0 0 -1
    outer loop
      vertex 61.39157857666015 -29.785804694804817 0
      vertex 61 -29.811470110683388 0
      vertex 62.14805029709527 -29.583108708217246 0
    endloop
  endfacet
  facet normal 0 0 -1
    outer loop
      vertex 61.39157857666015 -29.785804694804817 0
      vertex 62.14805029709527 -29.583108708217246 0
      vertex 61.77645713530756 -29.709247589550593 0
    endloop
  endfacet
  facet normal 0 0 -1
    outer loop
      vertex 62.14805029709527 -29.583108708217246 0
      vertex 62.82628428702616 -29.191530131557094 0
      vertex 62.5 -29.409546322036704 0
    endloop
  endfacet
  facet normal 0 0 -1
    outer loop
      vertex 62.14805029709527 -29.583108708217246 0
      vertex 63.38006002087371 -28.63775439770955 0
      vertex 62.82628428702616 -29.191530131557094 0
    endloop
  endfacet
  facet normal 0 0 -1
    outer loop
      vertex 63.38006002087371 -28.63775439770955 0
      vertex 63.121320343559645 -28.93279045424303 0
      vertex 62.82628428702616 -29.191530131557094 0
    endloop
  endfacet
  facet normal 0 0 -1
    outer loop
      vertex 63.38006002087371 -28.63775439770955 0
      vertex 62.14805029709527 -29.583108708217246 0
      vertex 64 -26.811470110683388 0
    endloop
  endfacet
  facet normal 0 0 -1
    outer loop
      vertex 63.38006002087371 -28.63775439770955 0
      vertex 63.77163859753386 -27.95952040777866 0
      vertex 63.598076211353316 -28.311470110683388 0
    endloop
  endfacet
  facet normal 0 0 -1
    outer loop
      vertex 63.38006002087371 -28.63775439770955 0
      vertex 64 -26.811470110683388 0
      vertex 63.77163859753386 -27.95952040777866 0
    endloop
  endfacet
  facet normal 0 0 -1
    outer loop
      vertex 63.77163859753386 -27.95952040777866 0
      vertex 64 -26.811470110683388 0
      vertex 63.897777478867205 -27.58792724599095 0
    endloop
  endfacet
  facet normal 0 0 -1
    outer loop
      vertex 63.897777478867205 -27.58792724599095 0
      vertex 64 -26.811470110683388 0
      vertex 63.97433458412143 -27.203048687343543 0
    endloop
  endfacet
  facet normal 0.0654031292301486 -0.997858923238603 0
    outer loop
      vertex 61.39157857666015 -29.785804694804817 2
      vertex 61 -29.811470110683388 0
      vertex 61.39157857666015 -29.785804694804817 0
    endloop
  endfacet
  facet normal 0.19509032201612275 -0.9807852804032315 0
    outer loop
      vertex 61.77645713530756 -29.709247589550593 2
      vertex 61.39157857666015 -29.785804694804817 0
      vertex 61.77645713530756 -29.709247589550593 0
    endloop
  endfacet
  facet normal 0.32143946530316636 -0.9469301294951041 -2.3552235269160185e-18
    outer loop
      vertex 62.14805029709527 -29.583108708217246 0
      vertex 61.77645713530756 -29.709247589550593 2
      vertex 61.77645713530756 -29.709247589550593 0
    endloop
  endfacet
  facet normal 0.44228869021899464 -0.8968727415326915 0
    outer loop
      vertex 62.14805029709527 -29.583108708217246 2
      vertex 62.14805029709527 -29.583108708217246 0
      vertex 62.5 -29.409546322036704 0
    endloop
  endfacet
  facet normal 0.5555702330196001 -0.8314696123025467 0
    outer loop
      vertex 62.82628428702616 -29.191530131557094 0
      vertex 62.82628428702616 -29.191530131557094 2
      vertex 62.5 -29.409546322036704 0
    endloop
  endfacet
  facet normal 0.659345815100068 -0.751839807478978 0
    outer loop
      vertex 62.82628428702616 -29.191530131557094 2
      vertex 62.82628428702616 -29.191530131557094 0
      vertex 63.121320343559645 -28.93279045424303 0
    endloop
  endfacet
  facet normal 0.7518398074789787 -0.6593458151000674 0
    outer loop
      vertex 63.38006002087371 -28.63775439770955 0
      vertex 63.38006002087371 -28.63775439770955 2
      vertex 63.121320343559645 -28.93279045424303 0
    endloop
  endfacet
  facet normal 0.8314696123025467 -0.5555702330196001 0
    outer loop
      vertex 63.38006002087371 -28.63775439770955 0
      vertex 63.598076211353316 -28.311470110683388 0
      vertex 63.38006002087371 -28.63775439770955 2
    endloop
  endfacet
  facet normal 0.8968727415326898 -0.44228869021899825 0
    outer loop
      vertex 63.77163859753386 -27.95952040777866 0
      vertex 63.77163859753386 -27.95952040777866 2
      vertex 63.598076211353316 -28.311470110683388 0
    endloop
  endfacet
  facet normal 0.9469301294951041 -0.32143946530316636 0
    outer loop
      vertex 63.77163859753386 -27.95952040777866 0
      vertex 63.897777478867205 -27.58792724599095 0
      vertex 63.77163859753386 -27.95952040777866 2
    endloop
  endfacet
  facet normal 0.9807852804032315 -0.19509032201612275 0
    outer loop
      vertex 63.897777478867205 -27.58792724599095 0
      vertex 63.97433458412143 -27.203048687343543 0
      vertex 63.897777478867205 -27.58792724599095 2
    endloop
  endfacet
  facet normal 0.9978589232386033 -0.06540312923014802 0
    outer loop
      vertex 64 -26.811470110683388 0
      vertex 64 -26.811470110683388 2
      vertex 63.97433458412143 -27.203048687343543 0
    endloop
  endfacet
  facet normal 1 0 0
    outer loop
      vertex 64 -26.811470110683388 0
      vertex 64 26.811470110683388 0
      vertex 64 -26.811470110683388 2
    endloop
  endfacet
  facet normal 0 0 1
    outer loop
      vertex 62.14805029709527 -29.583108708217246 2
      vertex -61 -29.811470110683388 2
      vertex 61 -29.811470110683388 2
    endloop
  endfacet
  facet normal 0 0 1
    outer loop
      vertex -62.14805029709527 -29.583108708217246 2
      vertex 62.14805029709527 -29.583108708217246 2
      vertex 62.14805029709527 29.583108708217246 2
    endloop
  endfacet
  facet normal 0.0654031292301486 -0.997858923238603 -6.801186623393557e-19
    outer loop
      vertex 61.39157857666015 -29.785804694804817 2
      vertex 61 -29.811470110683388 2
      vertex 61 -29.811470110683388 0
    endloop
  endfacet
  facet normal 0.19509032201612275 -0.9807852804032315 -2.860716071401304e-19
    outer loop
      vertex 61.77645713530756 -29.709247589550593 2
      vertex 61.39157857666015 -29.785804694804817 2
      vertex 61.39157857666015 -29.785804694804817 0
    endloop
  endfacet
  facet normal 0.32143946530316636 -0.9469301294951041 0
    outer loop
      vertex 62.14805029709527 -29.583108708217246 0
      vertex 62.14805029709527 -29.583108708217246 2
      vertex 61.77645713530756 -29.709247589550593 2
    endloop
  endfacet
  facet normal 0.44228869021899464 -0.8968727415326915 -3.0459650416730136e-18
    outer loop
      vertex 62.14805029709527 -29.583108708217246 2
      vertex 62.5 -29.409546322036704 0
      vertex 62.5 -29.409546322036704 2
    endloop
  endfacet
  facet normal 0.5555702330196001 -0.8314696123025467 0
    outer loop
      vertex 62.5 -29.409546322036704 0
      vertex 62.82628428702616 -29.191530131557094 2
      vertex 62.5 -29.409546322036704 2
    endloop
  endfacet
  facet normal 0.659345815100068 -0.751839807478978 -8.452398924469889e-18
    outer loop
      vertex 62.82628428702616 -29.191530131557094 2
      vertex 63.121320343559645 -28.93279045424303 0
      vertex 63.121320343559645 -28.93279045424303 2
    endloop
  endfacet
  facet normal 0.7518398074789787 -0.6593458151000674 0
    outer loop
      vertex 63.121320343559645 -28.93279045424303 0
      vertex 63.38006002087371 -28.63775439770955 2
      vertex 63.121320343559645 -28.93279045424303 2
    endloop
  endfacet
  facet normal 0.8314696123025467 -0.5555702330196001 4.208336938099932e-18
    outer loop
      vertex 63.38006002087371 -28.63775439770955 2
      vertex 63.598076211353316 -28.311470110683388 0
      vertex 63.598076211353316 -28.311470110683388 2
    endloop
  endfacet
  facet normal 0.8968727415326898 -0.44228869021899825 0
    outer loop
      vertex 63.598076211353316 -28.311470110683388 0
      vertex 63.77163859753386 -27.95952040777866 2
      vertex 63.598076211353316 -28.311470110683388 2
    endloop
  endfacet
  facet normal 0.9469301294951041 -0.32143946530316636 0
    outer loop
      vertex 63.897777478867205 -27.58792724599095 0
      vertex 63.897777478867205 -27.58792724599095 2
      vertex 63.77163859753386 -27.95952040777866 2
    endloop
  endfacet
  facet normal 0.9807852804032315 -0.19509032201612275 -2.860716071401304e-19
    outer loop
      vertex 63.897777478867205 -27.58792724599095 2
      vertex 63.97433458412143 -27.203048687343543 0
      vertex 63.97433458412143 -27.203048687343543 2
    endloop
  endfacet
  facet normal 0.9978589232386033 -0.06540312923014802 0
    outer loop
      vertex 63.97433458412143 -27.203048687343543 0
      vertex 64 -26.811470110683388 2
      vertex 63.97433458412143 -27.203048687343543 2
    endloop
  endfacet
  facet normal 0 0 1
    outer loop
      vertex 62.14805029709527 -29.583108708217246 2
      vertex 61 -29.811470110683388 2
      vertex 61.39157857666015 -29.785804694804817 2
    endloop
  endfacet
  facet normal 0 0 1
    outer loop
      vertex 62.14805029709527 -29.583108708217246 2
      vertex 61.39157857666015 -29.785804694804817 2
      vertex 61.77645713530756 -29.709247589550593 2
    endloop
  endfacet
  facet normal 0 0 1
    outer loop
      vertex 62.82628428702616 -29.191530131557094 2
      vertex 62.14805029709527 -29.583108708217246 2
      vertex 62.5 -29.409546322036704 2
    endloop
  endfacet
  facet normal 0 0 1
    outer loop
      vertex 63.38006002087371 -28.63775439770955 2
      vertex 62.14805029709527 -29.583108708217246 2
      vertex 62.82628428702616 -29.191530131557094 2
    endloop
  endfacet
  facet normal 0 0 1
    outer loop
      vertex 63.38006002087371 -28.63775439770955 2
      vertex 62.82628428702616 -29.191530131557094 2
      vertex 63.121320343559645 -28.93279045424303 2
    endloop
  endfacet
  facet normal 0 0 1
    outer loop
      vertex 64 -26.811470110683388 2
      vertex 62.14805029709527 -29.583108708217246 2
      vertex 63.38006002087371 -28.63775439770955 2
    endloop
  endfacet
  facet normal 0 0 1
    outer loop
      vertex 63.77163859753386 -27.95952040777866 2
      vertex 63.38006002087371 -28.63775439770955 2
      vertex 63.598076211353316 -28.311470110683388 2
    endloop
  endfacet
  facet normal 0 0 1
    outer loop
      vertex 64 -26.811470110683388 2
      vertex 63.38006002087371 -28.63775439770955 2
      vertex 63.77163859753386 -27.95952040777866 2
    endloop
  endfacet
  facet normal 0 0 1
    outer loop
      vertex 64 -26.811470110683388 2
      vertex 63.77163859753386 -27.95952040777866 2
      vertex 63.897777478867205 -27.58792724599095 2
    endloop
  endfacet
  facet normal 0 0 1
    outer loop
      vertex 64 -26.811470110683388 2
      vertex 63.897777478867205 -27.58792724599095 2
      vertex 63.97433458412143 -27.203048687343543 2
    endloop
  endfacet
  facet normal 0 0 1
    outer loop
      vertex 62.14805029709527 29.583108708217246 2
      vertex 62.14805029709527 -29.583108708217246 2
      vertex 64 -26.811470110683388 2
    endloop
  endfacet
  facet normal 0 0 -1
    outer loop
      vertex 64 -26.811470110683388 0
      vertex -61 29.811470110683388 0
      vertex 62.14805029709527 29.583108708217246 0
    endloop
  endfacet
  facet normal 0 0 -1
    outer loop
      vertex -61 29.811470110683388 0
      vertex 61 29.811470110683388 0
      vertex 62.14805029709527 29.583108708217246 0
    endloop
  endfacet
  facet normal 0 0 -1
    outer loop
      vertex 64 -26.811470110683388 0
      vertex 62.14805029709527 29.583108708217246 0
      vertex 64 26.811470110683388 0
    endloop
  endfacet
  facet normal 0 0 -1
    outer loop
      vertex 64 26.811470110683388 0
      vertex 63.897777478867205 27.58792724599095 0
      vertex 63.97433458412143 27.203048687343543 0
    endloop
  endfacet
  facet normal 0 0 -1
    outer loop
      vertex 64 26.811470110683388 0
      vertex 63.598076211353316 28.311470110683388 0
      vertex 63.897777478867205 27.58792724599095 0
    endloop
  endfacet
  facet normal 0 0 -1
    outer loop
      vertex 61 29.811470110683388 0
      vertex 61.39157857666015 29.785804694804817 0
      vertex 61.77645713530756 29.709247589550593 0
    endloop
  endfacet
  facet normal 0 0 -1
    outer loop
      vertex 62.14805029709527 29.583108708217246 0
      vertex 61 29.811470110683388 0
      vertex 61.77645713530756 29.709247589550593 0
    endloop
  endfacet
  facet normal 0 0 -1
    outer loop
      vertex 64 26.811470110683388 0
      vertex 62.14805029709527 29.583108708217246 0
      vertex 63.598076211353316 28.311470110683388 0
    endloop
  endfacet
  facet normal 0 0 -1
    outer loop
      vertex 63.897777478867205 27.58792724599095 0
      vertex 63.598076211353316 28.311470110683388 0
      vertex 63.77163859753386 27.95952040777866 0
    endloop
  endfacet
  facet normal 0 0 -1
    outer loop
      vertex 63.598076211353316 28.311470110683388 0
      vertex 63.121320343559645 28.93279045424303 0
      vertex 63.38006002087371 28.63775439770955 0
    endloop
  endfacet
  facet normal 0 0 -1
    outer loop
      vertex 63.598076211353316 28.311470110683388 0
      vertex 62.14805029709527 29.583108708217246 0
      vertex 63.121320343559645 28.93279045424303 0
    endloop
  endfacet
  facet normal 0 0 -1
    outer loop
      vertex 63.121320343559645 28.93279045424303 0
      vertex 62.14805029709527 29.583108708217246 0
      vertex 62.82628428702616 29.191530131557094 0
    endloop
  endfacet
  facet normal 0 0 -1
    outer loop
      vertex 62.82628428702616 29.191530131557094 0
      vertex 62.14805029709527 29.583108708217246 0
      vertex 62.5 29.409546322036704 0
    endloop
  endfacet
  facet normal 0.9978589232386033 0.06540312923014802 0
    outer loop
      vertex 63.97433458412143 27.203048687343543 2
      vertex 64 26.811470110683388 0
      vertex 63.97433458412143 27.203048687343543 0
    endloop
  endfacet
  facet normal 0.9807852804032315 0.19509032201612275 2.860716071401304e-19
    outer loop
      vertex 63.897777478867205 27.58792724599095 0
      vertex 63.97433458412143 27.203048687343543 2
      vertex 63.97433458412143 27.203048687343543 0
    endloop
  endfacet
  facet normal 0.9469301294951041 0.32143946530316636 0
    outer loop
      vertex 63.897777478867205 27.58792724599095 2
      vertex 63.897777478867205 27.58792724599095 0
      vertex 63.77163859753386 27.95952040777866 0
    endloop
  endfacet
  facet normal 0.0654031292301486 0.997858923238603 0
    outer loop
      vertex 61 29.811470110683388 0
      vertex 61 29.811470110683388 2
      vertex 61.39157857666015 29.785804694804817 0
    endloop
  endfacet
  facet normal 0.19509032201612275 0.9807852804032315 0
    outer loop
      vertex 61.77645713530756 29.709247589550593 2
      vertex 61.77645713530756 29.709247589550593 0
      vertex 61.39157857666015 29.785804694804817 0
    endloop
  endfacet
  facet normal 0.8968727415326898 0.44228869021899825 1.8430486700497294e-18
    outer loop
      vertex 63.77163859753386 27.95952040777866 0
      vertex 63.598076211353316 28.311470110683388 0
      vertex 63.598076211353316 28.311470110683388 2
    endloop
  endfacet
  facet normal 0.8314696123025467 0.5555702330196001 0
    outer loop
      vertex 63.38006002087371 28.63775439770955 2
      vertex 63.598076211353316 28.311470110683388 0
      vertex 63.38006002087371 28.63775439770955 0
    endloop
  endfacet
  facet normal 0.7518398074789787 0.6593458151000674 4.325119236396391e-18
    outer loop
      vertex 63.121320343559645 28.93279045424303 0
      vertex 63.38006002087371 28.63775439770955 2
      vertex 63.38006002087371 28.63775439770955 0
    endloop
  endfacet
  facet normal 0.5555702330196001 0.8314696123025467 0
    outer loop
      vertex 62.82628428702616 29.191530131557094 0
      vertex 62.5 29.409546322036704 0
      vertex 62.82628428702616 29.191530131557094 2
    endloop
  endfacet
  facet normal 0.44228869021899464 0.8968727415326915 0
    outer loop
      vertex 62.14805029709527 29.583108708217246 0
      vertex 62.14805029709527 29.583108708217246 2
      vertex 62.5 29.409546322036704 0
    endloop
  endfacet
  facet normal 0.32143946530316636 0.9469301294951041 0
    outer loop
      vertex 62.14805029709527 29.583108708217246 2
      vertex 62.14805029709527 29.583108708217246 0
      vertex 61.77645713530756 29.709247589550593 0
    endloop
  endfacet
  facet normal 0.659345815100068 0.751839807478978 0
    outer loop
      vertex 63.121320343559645 28.93279045424303 0
      vertex 62.82628428702616 29.191530131557094 0
      vertex 63.121320343559645 28.93279045424303 2
    endloop
  endfacet
  facet normal 0 1 0
    outer loop
      vertex 61 29.811470110683388 0
      vertex -61 29.811470110683388 2
      vertex 61 29.811470110683388 2
    endloop
  endfacet
  facet normal 0 0 1
    outer loop
      vertex -61 29.811470110683388 2
      vertex 62.14805029709527 29.583108708217246 2
      vertex 61 29.811470110683388 2
    endloop
  endfacet
  facet normal 1 0 0
    outer loop
      vertex 64 26.811470110683388 0
      vertex 64 26.811470110683388 2
      vertex 64 -26.811470110683388 2
    endloop
  endfacet
  facet normal 0 0 1
    outer loop
      vertex 62.14805029709527 29.583108708217246 2
      vertex 64 -26.811470110683388 2
      vertex 64 26.811470110683388 2
    endloop
  endfacet
  facet normal 0.9978589232386033 0.06540312923014802 0
    outer loop
      vertex 64 26.811470110683388 2
      vertex 64 26.811470110683388 0
      vertex 63.97433458412143 27.203048687343543 2
    endloop
  endfacet
  facet normal 0.9807852804032315 0.19509032201612275 0
    outer loop
      vertex 63.897777478867205 27.58792724599095 0
      vertex 63.897777478867205 27.58792724599095 2
      vertex 63.97433458412143 27.203048687343543 2
    endloop
  endfacet
  facet normal 0.9469301294951041 0.32143946530316636 2.3552235269160185e-18
    outer loop
      vertex 63.897777478867205 27.58792724599095 2
      vertex 63.77163859753386 27.95952040777866 0
      vertex 63.77163859753386 27.95952040777866 2
    endloop
  endfacet
  facet normal 0.0654031292301486 0.997858923238603 0
    outer loop
      vertex 61.39157857666015 29.785804694804817 0
      vertex 61 29.811470110683388 2
      vertex 61.39157857666015 29.785804694804817 2
    endloop
  endfacet
  facet normal 0.19509032201612275 0.9807852804032315 2.860716071401304e-19
    outer loop
      vertex 61.77645713530756 29.709247589550593 2
      vertex 61.39157857666015 29.785804694804817 0
      vertex 61.39157857666015 29.785804694804817 2
    endloop
  endfacet
  facet normal 0.32143946530316636 0.9469301294951041 2.3552235269160185e-18
    outer loop
      vertex 62.14805029709527 29.583108708217246 2
      vertex 61.77645713530756 29.709247589550593 0
      vertex 61.77645713530756 29.709247589550593 2
    endloop
  endfacet
  facet normal 0.8968727415326898 0.44228869021899825 0
    outer loop
      vertex 63.77163859753386 27.95952040777866 0
      vertex 63.598076211353316 28.311470110683388 2
      vertex 63.77163859753386 27.95952040777866 2
    endloop
  endfacet
  facet normal 0.7518398074789787 0.6593458151000674 4.325119236396391e-18
    outer loop
      vertex 63.38006002087371 28.63775439770955 2
      vertex 63.121320343559645 28.93279045424303 0
      vertex 63.121320343559645 28.93279045424303 2
    endloop
  endfacet
  facet normal 0.8314696123025467 0.5555702330196001 0
    outer loop
      vertex 63.598076211353316 28.311470110683388 0
      vertex 63.38006002087371 28.63775439770955 2
      vertex 63.598076211353316 28.311470110683388 2
    endloop
  endfacet
  facet normal 0.659345815100068 0.751839807478978 0
    outer loop
      vertex 62.82628428702616 29.191530131557094 0
      vertex 62.82628428702616 29.191530131557094 2
      vertex 63.121320343559645 28.93279045424303 2
    endloop
  endfacet
  facet normal 0.5555702330196001 0.8314696123025467 -4.208336938099932e-18
    outer loop
      vertex 62.82628428702616 29.191530131557094 2
      vertex 62.5 29.409546322036704 0
      vertex 62.5 29.409546322036704 2
    endloop
  endfacet
  facet normal 0.44228869021899464 0.8968727415326915 0
    outer loop
      vertex 62.5 29.409546322036704 0
      vertex 62.14805029709527 29.583108708217246 2
      vertex 62.5 29.409546322036704 2
    endloop
  endfacet
  facet normal 0 0 1
    outer loop
      vertex 63.97433458412143 27.203048687343543 2
      vertex 63.897777478867205 27.58792724599095 2
      vertex 64 26.811470110683388 2
    endloop
  endfacet
  facet normal 0 0 1
    outer loop
      vertex 61 29.811470110683388 2
      vertex 61.77645713530756 29.709247589550593 2
      vertex 61.39157857666015 29.785804694804817 2
    endloop
  endfacet
  facet normal 0 0 1
    outer loop
      vertex 61 29.811470110683388 2
      vertex 62.14805029709527 29.583108708217246 2
      vertex 61.77645713530756 29.709247589550593 2
    endloop
  endfacet
  facet normal 0 0 1
    outer loop
      vertex 62.14805029709527 29.583108708217246 2
      vertex 64 26.811470110683388 2
      vertex 63.897777478867205 27.58792724599095 2
    endloop
  endfacet
  facet normal 0 0 1
    outer loop
      vertex 63.897777478867205 27.58792724599095 2
      vertex 63.598076211353316 28.311470110683388 2
      vertex 63.38006002087371 28.63775439770955 2
    endloop
  endfacet
  facet normal 0 0 1
    outer loop
      vertex 63.598076211353316 28.311470110683388 2
      vertex 63.897777478867205 27.58792724599095 2
      vertex 63.77163859753386 27.95952040777866 2
    endloop
  endfacet
  facet normal 0 0 1
    outer loop
      vertex 62.14805029709527 29.583108708217246 2
      vertex 63.897777478867205 27.58792724599095 2
      vertex 63.38006002087371 28.63775439770955 2
    endloop
  endfacet
  facet normal 0 0 1
    outer loop
      vertex 62.14805029709527 29.583108708217246 2
      vertex 63.38006002087371 28.63775439770955 2
      vertex 63.121320343559645 28.93279045424303 2
    endloop
  endfacet
  facet normal 0 0 1
    outer loop
      vertex 62.14805029709527 29.583108708217246 2
      vertex 63.121320343559645 28.93279045424303 2
      vertex 62.82628428702616 29.191530131557094 2
    endloop
  endfacet
  facet normal 0 0 1
    outer loop
      vertex 62.14805029709527 29.583108708217246 2
      vertex 62.82628428702616 29.191530131557094 2
      vertex 62.5 29.409546322036704 2
    endloop
  endfacet
endsolid OpenSCAD_Model
