  0
SECTION
  2
HEADER
  9
$ACADVER
  1
AC1006
  9
$EXTMIN
 10
0.000000
 20
0.000000
 30
0.000000
  9
$EXTMAX
 10
1200.000000
 20
630.000000
 30
0.000000
  0
ENDSEC
  0
SECTION
  2
ENTITIES
  0
POLYLINE
  8
0
 66
1
 70
1
  0
VERTEX
  8
0
 10
430.000000
 20
451.940983
 42
-0.091277
  0
VERTEX
  8
0
 10
429.933192
 20
451.578070
 42
-0.169917
  0
VERTEX
  8
0
 10
429.742607
 20
451.352130
 42
-0.175591
  0
VERTEX
  8
0
 10
429.457915
 20
451.298611
 42
-0.098253
  0
VERTEX
  8
0
 10
429.123769
 20
451.423506
 42
0.213662
  0
VERTEX
  8
0
 10
427.848677
 20
451.593558
 42
0.004419
  0
VERTEX
  8
0
 10
421.562323
 20
449.667888
 42
0.010083
  0
VERTEX
  8
0
 10
415.620724
 20
447.657588
 42
0.045173
  0
VERTEX
  8
0
 10
412.295024
 20
446.105296
 42
0.012230
  0
VERTEX
  8
0
 10
411.390787
 20
445.549104
 42
0.187473
  0
VERTEX
  8
0
 10
411.180479
 20
445.257150
 42
0.430864
  0
VERTEX
  8
0
 10
411.305570
 20
445.057649
 42
0.033674
  0
VERTEX
  8
0
 10
412.000000
 20
444.967022
 42
-0.165576
  0
VERTEX
  8
0
 10
412.318619
 20
444.835820
 42
-0.418733
  0
VERTEX
  8
0
 10
412.331905
 20
444.610503
 42
-0.093369
  0
VERTEX
  8
0
 10
411.889114
 20
444.273615
 42
-0.021137
  0
VERTEX
  8
0
 10
411.023506
 20
443.885052
 42
-0.042136
  0
VERTEX
  8
0
 10
409.913437
 20
443.547206
 42
-0.029794
  0
VERTEX
  8
0
 10
408.624642
 20
443.350253
 42
-0.030226
  0
VERTEX
  8
0
 10
407.361082
 20
443.310257
 42
-0.054332
  0
VERTEX
  8
0
 10
406.334791
 20
443.452109
 42
0.053236
  0
VERTEX
  8
0
 10
405.435514
 20
443.578408
 42
0.059130
  0
VERTEX
  8
0
 10
404.562146
 20
443.504026
 42
0.067396
  0
VERTEX
  8
0
 10
403.843416
 20
443.251665
 42
0.137089
  0
VERTEX
  8
0
 10
403.406777
 20
442.849162
 42
0.028682
  0
VERTEX
  8
0
 10
403.157047
 20
442.387906
 42
0.314152
  0
VERTEX
  8
0
 10
403.190797
 20
442.191172
 42
0.317511
  0
VERTEX
  8
0
 10
403.386153
 20
442.156181
 42
0.028989
  0
VERTEX
  8
0
 10
403.845492
 20
442.404508
 42
-0.068937
  0
VERTEX
  8
0
 10
404.287383
 20
442.599686
 42
-0.143226
  0
VERTEX
  8
0
 10
404.660863
 20
442.597350
 42
-0.190280
  0
VERTEX
  8
0
 10
404.906838
 20
442.403738
 42
-0.132745
  0
VERTEX
  8
0
 10
405.000000
 20
442.059017
 42
-0.093332
  0
VERTEX
  8
0
 10
404.923877
 20
441.654762
 42
-0.096420
  0
VERTEX
  8
0
 10
404.706250
 20
441.311086
 42
-0.099167
  0
VERTEX
  8
0
 10
404.381556
 20
441.081062
 42
-0.105053
  0
VERTEX
  8
0
 10
404.000000
 20
441.000000
 42
0.153634
  0
VERTEX
  8
0
 10
403.618621
 20
440.879982
 42
0.097988
  0
VERTEX
  8
0
 10
403.293750
 20
440.542039
 42
0.080552
  0
VERTEX
  8
0
 10
403.074545
 20
440.037096
 42
0.062283
  0
VERTEX
  8
0
 10
403.000000
 20
439.440983
 42
-0.071690
  0
VERTEX
  8
0
 10
402.921060
 20
438.893252
 42
-0.147301
  0
VERTEX
  8
0
 10
402.686224
 20
438.533851
 42
-0.189104
  0
VERTEX
  8
0
 10
402.337834
 20
438.416177
 42
-0.127056
  0
VERTEX
  8
0
 10
401.931826
 20
438.542134
 42
-0.109884
  0
VERTEX
  8
0
 10
401.564485
 20
438.900093
 42
-0.081902
  0
VERTEX
  8
0
 10
401.335110
 20
439.419289
 42
-0.076891
  0
VERTEX
  8
0
 10
401.275690
 20
440.017004
 42
-0.078162
  0
VERTEX
  8
0
 10
401.400442
 20
440.601151
 42
0.078797
  0
VERTEX
  8
0
 10
401.513886
 20
441.135658
 42
0.127013
  0
VERTEX
  8
0
 10
401.421580
 20
441.589148
 42
0.151584
  0
VERTEX
  8
0
 10
401.139637
 20
441.889166
 42
0.129567
  0
VERTEX
  8
0
 10
400.718615
 20
442.000206
 42
0.083314
  0
VERTEX
  8
0
 10
398.353948
 20
441.603840
 42
0.008714
  0
VERTEX
  8
0
 10
393.055704
 20
439.671335
 42
0.004126
  0
VERTEX
  8
0
 10
387.515533
 20
437.487829
 42
0.305810
  0
VERTEX
  8
0
 10
387.000000
 20
436.723759
 42
0.344619
  0
VERTEX
  8
0
 10
387.166479
 20
436.510904
 42
0.099456
  0
VERTEX
  8
0
 10
387.612659
 20
436.490792
 42
0.056385
  0
VERTEX
  8
0
 10
388.285268
 20
436.673953
 42
0.028227
  0
VERTEX
  8
0
 10
389.085646
 20
437.045837
 42
-0.026824
  0
VERTEX
  8
0
 10
389.920909
 20
437.436781
 42
-0.037561
  0
VERTEX
  8
0
 10
390.705509
 20
437.687281
 42
-0.041659
  0
VERTEX
  8
0
 10
391.345199
 20
437.784408
 42
-0.216494
  0
VERTEX
  8
0
 10
391.671293
 20
437.662041
 42
-0.336274
  0
VERTEX
  8
0
 10
391.708988
 20
437.387823
 42
-0.068346
  0
VERTEX
  8
0
 10
391.392982
 20
436.970981
 42
-0.047223
  0
VERTEX
  8
0
 10
390.810133
 20
436.488681
 42
-0.026383
  0
VERTEX
  8
0
 10
390.021724
 20
436.011626
 42
-0.036151
  0
VERTEX
  8
0
 10
388.904764
 20
435.513991
 42
-0.089843
  0
VERTEX
  8
0
 10
388.025683
 20
435.365215
 42
-0.106287
  0
VERTEX
  8
0
 10
387.242402
 20
435.543114
 42
-0.064492
  0
VERTEX
  8
0
 10
386.436078
 20
436.053051
 42
0.024209
  0
VERTEX
  8
0
 10
385.680138
 20
436.620969
 42
0.225517
  0
VERTEX
  8
0
 10
385.287634
 20
436.681212
 42
0.291115
  0
VERTEX
  8
0
 10
385.058151
 20
436.415788
 42
0.036600
  0
VERTEX
  8
0
 10
385.000000
 20
435.622445
 42
-0.095038
  0
VERTEX
  8
0
 10
384.881216
 20
435.003159
 42
-0.096915
  0
VERTEX
  8
0
 10
384.542039
 20
434.476593
 42
-0.098829
  0
VERTEX
  8
0
 10
384.035873
 20
434.124093
 42
-0.103188
  0
VERTEX
  8
0
 10
383.440983
 20
434.000000
 42
-0.075580
  0
VERTEX
  8
0
 10
382.861027
 20
434.088170
 42
-0.159211
  0
VERTEX
  8
0
 10
382.493873
 20
434.348913
 42
-0.179211
  0
VERTEX
  8
0
 10
382.376931
 20
434.751269
 42
-0.099592
  0
VERTEX
  8
0
 10
382.515140
 20
435.250000
 42
0.099966
  0
VERTEX
  8
0
 10
382.588089
 20
435.513997
 42
0.639070
  0
VERTEX
  8
0
 10
382.499911
 20
435.562606
 42
0.054429
  0
VERTEX
  8
0
 10
382.149815
 20
435.241494
 42
0.009606
  0
VERTEX
  8
0
 10
381.574157
 20
434.558870
 42
0.029418
  0
VERTEX
  8
0
 10
380.971698
 20
433.719540
 42
0.028180
  0
VERTEX
  8
0
 10
380.462409
 20
432.803467
 42
0.029356
  0
VERTEX
  8
0
 10
380.107097
 20
431.944845
 42
0.083610
  0
VERTEX
  8
0
 10
380.000000
 20
431.308870
 42
-0.222787
  0
VERTEX
  8
0
 10
379.589843
 20
430.434044
 42
-0.161074
  0
VERTEX
  8
0
 10
378.572794
 20
430.034219
 42
-0.129312
  0
VERTEX
  8
0
 10
377.337058
 20
430.287339
 42
-0.140408
  0
VERTEX
  8
0
 10
376.430902
 20
431.111803
 42
-0.125163
  0
VERTEX
  8
0
 10
376.274242
 20
431.610207
 42
-0.094308
  0
VERTEX
  8
0
 10
376.350436
 20
432.181682
 42
-0.084524
  0
VERTEX
  8
0
 10
376.647040
 20
432.738759
 42
-0.075149
  0
VERTEX
  8
0
 10
377.121885
 20
433.192687
 42
0.075469
  0
VERTEX
  8
0
 10
377.516976
 20
433.570856
 42
0.559415
  0
VERTEX
  8
0
 10
377.442198
 20
433.767455
 42
0.091622
  0
VERTEX
  8
0
 10
376.851831
 20
433.770122
 42
0.009792
  0
VERTEX
  8
0
 10
375.502050
 20
433.499600
 42
0.013538
  0
VERTEX
  8
0
 10
373.058904
 20
432.890165
 42
0.132504
  0
VERTEX
  8
0
 10
372.152459
 20
432.352950
 42
0.385996
  0
VERTEX
  8
0
 10
372.130779
 20
431.743575
 42
0.076572
  0
VERTEX
  8
0
 10
373.028960
 20
430.960940
 42
-0.030166
  0
VERTEX
  8
0
 10
373.529297
 20
430.600540
 42
-0.117373
  0
VERTEX
  8
0
 10
373.759445
 20
430.299407
 42
-0.346657
  0
VERTEX
  8
0
 10
373.710337
 20
430.105869
 42
-0.161466
  0
VERTEX
  8
0
 10
373.450000
 20
430.015313
 42
-0.087398
  0
VERTEX
  8
0
 10
372.962281
 20
430.093906
 42
-0.037648
  0
VERTEX
  8
0
 10
372.355937
 20
430.356998
 42
-0.035771
  0
VERTEX
  8
0
 10
371.736687
 20
430.741929
 42
-0.039453
  0
VERTEX
  8
0
 10
371.200000
 20
431.200000
 42
0.019206
  0
VERTEX
  8
0
 10
370.578868
 20
431.775162
 42
0.191730
  0
VERTEX
  8
0
 10
370.250000
 20
431.887705
 42
0.346165
  0
VERTEX
  8
0
 10
370.054566
 20
431.717794
 42
0.047194
  0
VERTEX
  8
0
 10
370.000000
 20
431.140983
 42
-0.068868
  0
VERTEX
  8
0
 10
369.938564
 20
430.697056
 42
-0.143121
  0
VERTEX
  8
0
 10
369.754719
 20
430.403394
 42
-0.190306
  0
VERTEX
  8
0
 10
369.482196
 20
430.303599
 42
-0.132895
  0
VERTEX
  8
0
 10
369.165002
 20
430.398023
 42
0.153117
  0
VERTEX
  8
0
 10
368.629056
 20
430.534702
 42
0.021037
  0
VERTEX
  8
0
 10
367.467813
 20
430.422595
 42
0.022545
  0
VERTEX
  8
0
 10
366.064666
 20
430.162346
 42
0.017329
  0
VERTEX
  8
0
 10
364.559887
 20
429.756998
 42
0.008996
  0
VERTEX
  8
0
 10
362.557405
 20
429.102774
 42
0.111509
  0
VERTEX
  8
0
 10
361.881444
 20
428.682862
 42
0.451647
  0
VERTEX
  8
0
 10
361.902996
 20
428.295749
 42
0.073128
  0
VERTEX
  8
0
 10
362.644885
 20
427.870243
 42
-0.011753
  0
VERTEX
  8
0
 10
363.660789
 20
427.442823
 42
-0.471161
  0
VERTEX
  8
0
 10
363.717180
 20
427.237808
 42
-0.218440
  0
VERTEX
  8
0
 10
363.442542
 20
427.077456
 42
-0.005752
  0
VERTEX
  8
0
 10
362.000000
 20
426.951864
 42
-0.009720
  0
VERTEX
  8
0
 10
360.970172
 20
426.894236
 42
-0.009842
  0
VERTEX
  8
0
 10
359.943185
 20
426.877002
 42
-0.009679
  0
VERTEX
  8
0
 10
359.049601
 20
426.896900
 42
-0.039107
  0
VERTEX
  8
0
 10
358.508715
 20
426.962007
 42
0.090969
  0
VERTEX
  8
0
 10
357.916256
 20
426.971803
 42
0.012697
  0
VERTEX
  8
0
 10
356.706894
 20
426.738842
 42
0.014171
  0
VERTEX
  8
0
 10
355.275534
 20
426.382439
 42
0.011601
  0
VERTEX
  8
0
 10
353.766873
 20
425.923061
 42
0.018209
  0
VERTEX
  8
0
 10
351.996989
 20
425.266577
 42
0.084972
  0
VERTEX
  8
0
 10
351.079290
 20
424.689767
 42
0.205351
  0
VERTEX
  8
0
 10
350.807549
 20
424.105061
 42
0.182668
  0
VERTEX
  8
0
 10
351.026862
 20
423.467633
 42
-0.090716
  0
VERTEX
  8
0
 10
351.347421
 20
422.896948
 42
-0.324633
  0
VERTEX
  8
0
 10
351.231991
 20
422.519719
 42
-0.141666
  0
VERTEX
  8
0
 10
350.661442
 20
422.301967
 42
-0.020786
  0
VERTEX
  8
0
 10
349.411941
 20
422.250000
 42
-0.014946
  0
VERTEX
  8
0
 10
348.216344
 20
422.285746
 42
-0.134748
  0
VERTEX
  8
0
 10
347.725269
 20
422.452668
 42
-0.450079
  0
VERTEX
  8
0
 10
347.690377
 20
422.720774
 42
-0.072525
  0
VERTEX
  8
0
 10
348.143237
 20
423.109687
 42
0.024256
  0
VERTEX
  8
0
 10
348.680030
 20
423.487493
 42
0.175975
  0
VERTEX
  8
0
 10
348.845062
 20
423.750357
 42
0.392874
  0
VERTEX
  8
0
 10
348.742476
 20
423.922880
 42
0.068240
  0
VERTEX
  8
0
 10
348.331787
 20
423.984687
 42
0.060897
  0
VERTEX
  8
0
 10
346.855431
 20
423.823816
 42
0.061243
  0
VERTEX
  8
0
 10
345.464319
 20
423.312056
 42
0.082120
  0
VERTEX
  8
0
 10
344.560897
 20
422.641216
 42
0.343022
  0
VERTEX
  8
0
 10
344.493034
 20
422.011271
 42
-0.308130
  0
VERTEX
  8
0
 10
344.476071
 20
421.627948
 42
-0.061235
  0
VERTEX
  8
0
 10
343.975365
 20
421.105693
 42
-0.045747
  0
VERTEX
  8
0
 10
343.139086
 20
420.542467
 42
-0.027152
  0
VERTEX
  8
0
 10
342.054541
 20
420.022592
 42
0.037768
  0
VERTEX
  8
0
 10
340.916467
 20
419.447065
 42
0.065373
  0
VERTEX
  8
0
 10
340.089689
 20
418.786294
 42
0.090966
  0
VERTEX
  8
0
 10
339.646617
 20
418.116680
 42
0.194789
  0
VERTEX
  8
0
 10
339.635439
 20
417.507648
 42
-0.268196
  0
VERTEX
  8
0
 10
339.537928
 20
416.894263
 42
-0.134406
  0
VERTEX
  8
0
 10
338.878332
 20
416.421502
 42
-0.057046
  0
VERTEX
  8
0
 10
337.494383
 20
416.081807
 42
-0.014065
  0
VERTEX
  8
0
 10
335.162229
 20
415.851112
 42
-0.013515
  0
VERTEX
  8
0
 10
333.286036
 20
415.769556
 42
-0.026167
  0
VERTEX
  8
0
 10
331.785823
 20
415.823452
 42
-0.031891
  0
VERTEX
  8
0
 10
330.767461
 20
415.979437
 42
-0.517443
  0
VERTEX
  8
0
 10
330.653057
 20
416.250000
 42
0.274279
  0
VERTEX
  8
0
 10
330.658608
 20
416.533418
 42
0.150444
  0
VERTEX
  8
0
 10
330.397593
 20
416.779688
 42
0.078209
  0
VERTEX
  8
0
 10
329.860363
 20
416.946808
 42
0.036388
  0
VERTEX
  8
0
 10
329.130446
 20
417.000000
 42
0.109851
  0
VERTEX
  8
0
 10
327.454360
 20
416.627263
 42
0.066455
  0
VERTEX
  8
0
 10
325.735508
 20
415.524650
 42
0.068840
  0
VERTEX
  8
0
 10
324.437860
 20
414.075375
 42
0.156194
  0
VERTEX
  8
0
 10
324.031803
 20
412.678571
 42
0.258550
  0
VERTEX
  8
0
 10
324.183063
 20
412.422177
 42
0.254638
  0
VERTEX
  8
0
 10
324.482512
 20
412.412261
 42
0.086067
  0
VERTEX
  8
0
 10
324.957678
 20
412.764042
 42
0.028539
  0
VERTEX
  8
0
 10
325.521471
 20
413.426999
 42
-0.056218
  0
VERTEX
  8
0
 10
326.702233
 20
414.669327
 42
-0.345285
  0
VERTEX
  8
0
 10
327.527161
 20
414.697012
 42
-0.272739
  0
VERTEX
  8
0
 10
327.900870
 20
413.829795
 42
-0.045453
  0
VERTEX
  8
0
 10
327.494903
 20
411.983939
 42
-0.056128
  0
VERTEX
  8
0
 10
327.079065
 20
411.051435
 42
-0.112086
  0
VERTEX
  8
0
 10
326.528618
 20
410.466284
 42
-0.127729
  0
VERTEX
  8
0
 10
325.832028
 20
410.220952
 42
-0.085286
  0
VERTEX
  8
0
 10
324.985119
 20
410.293641
 42
0.079785
  0
VERTEX
  8
0
 10
324.042461
 20
410.384934
 42
0.285404
  0
VERTEX
  8
0
 10
323.570564
 20
410.048959
 42
0.121066
  0
VERTEX
  8
0
 10
323.435155
 20
409.182930
 42
0.012796
  0
VERTEX
  8
0
 10
323.664340
 20
407.135062
 42
-0.011298
  0
VERTEX
  8
0
 10
323.846715
 20
405.548481
 42
-0.070557
  0
VERTEX
  8
0
 10
323.806755
 20
404.734123
 42
-0.437609
  0
VERTEX
  8
0
 10
323.571871
 20
404.588207
 42
-0.173189
  0
VERTEX
  8
0
 10
323.221981
 20
404.833846
 42
0.036890
  0
VERTEX
  8
0
 10
322.703905
 20
405.462242
 42
0.259129
  0
VERTEX
  8
0
 10
322.338445
 20
405.575484
 42
0.224477
  0
VERTEX
  8
0
 10
322.011590
 20
405.327904
 42
0.028632
  0
VERTEX
  8
0
 10
321.639163
 20
404.502058
 42
0.026333
  0
VERTEX
  8
0
 10
321.394227
 20
403.747178
 42
0.017091
  0
VERTEX
  8
0
 10
321.187754
 20
402.852961
 42
0.017192
  0
VERTEX
  8
0
 10
321.045712
 20
401.963531
 42
0.031006
  0
VERTEX
  8
0
 10
321.000000
 20
401.227083
 42
0.036464
  0
VERTEX
  8
0
 10
321.056989
 20
400.446678
 42
0.436790
  0
VERTEX
  8
0
 10
321.279615
 20
400.293920
 42
0.166576
  0
VERTEX
  8
0
 10
321.650748
 20
400.522676
 42
0.010187
  0
VERTEX
  8
0
 10
322.468197
 20
401.558870
 42
-0.006264
  0
VERTEX
  8
0
 10
323.400912
 20
402.760441
 42
-0.203789
  0
VERTEX
  8
0
 10
323.718401
 20
402.932284
 42
-0.418214
  0
VERTEX
  8
0
 10
323.915874
 20
402.766567
 42
-0.015683
  0
VERTEX
  8
0
 10
323.968197
 20
401.700340
 42
-0.090194
  0
VERTEX
  8
0
 10
323.678694
 20
399.931512
 42
-0.021471
  0
VERTEX
  8
0
 10
322.553405
 20
397.155075
 42
-0.014768
  0
VERTEX
  8
0
 10
321.229326
 20
394.465955
 42
-0.277761
  0
VERTEX
  8
0
 10
320.455268
 20
394.000000
 42
-0.398699
  0
VERTEX
  8
0
 10
320.298260
 20
394.148861
 42
-0.028427
  0
VERTEX
  8
0
 10
320.300619
 20
394.807813
 42
-0.027782
  0
VERTEX
  8
0
 10
320.404013
 20
395.695377
 42
-0.015985
  0
VERTEX
  8
0
 10
320.621624
 20
396.750000
 42
0.017434
  0
VERTEX
  8
0
 10
320.827953
 20
397.764786
 42
0.045896
  0
VERTEX
  8
0
 10
320.882771
 20
398.504245
 42
0.140660
  0
VERTEX
  8
0
 10
320.781383
 20
398.835264
 42
0.463661
  0
VERTEX
  8
0
 10
320.584206
 20
398.860196
 42
0.105068
  0
VERTEX
  8
0
 10
320.298280
 20
398.458750
 42
0.026474
  0
VERTEX
  8
0
 10
320.016602
 20
397.702601
 42
0.025840
  0
VERTEX
  8
0
 10
319.780239
 20
396.784544
 42
0.023530
  0
VERTEX
  8
0
 10
319.630911
 20
395.817894
 42
-0.016826
  0
VERTEX
  8
0
 10
319.491529
 20
394.827858
 42
-0.016349
  0
VERTEX
  8
0
 10
319.284846
 20
393.839806
 42
-0.016495
  0
VERTEX
  8
0
 10
319.046324
 20
392.984269
 42
-0.056557
  0
VERTEX
  8
0
 10
318.812513
 20
392.457698
 42
0.112570
  0
VERTEX
  8
0
 10
318.652046
 20
391.950953
 42
0.041080
  0
VERTEX
  8
0
 10
318.651771
 20
391.193824
 42
0.038174
  0
VERTEX
  8
0
 10
318.788497
 20
390.336017
 42
0.037044
  0
VERTEX
  8
0
 10
319.054847
 20
389.500000
 42
0.022174
  0
VERTEX
  8
0
 10
319.371143
 20
388.804505
 42
0.108203
  0
VERTEX
  8
0
 10
319.643730
 20
388.472024
 42
0.440469
  0
VERTEX
  8
0
 10
319.829171
 20
388.502198
 42
0.132277
  0
VERTEX
  8
0
 10
319.929715
 20
388.809017
 42
-0.086175
  0
VERTEX
  8
0
 10
320.033513
 20
389.261354
 42
-0.154597
  0
VERTEX
  8
0
 10
320.277895
 20
389.549001
 42
-0.170906
  0
VERTEX
  8
0
 10
320.623718
 20
389.626783
 42
-0.109502
  0
VERTEX
  8
0
 10
321.016312
 20
389.489919
 42
-0.103486
  0
VERTEX
  8
0
 10
321.353970
 20
389.169112
 42
-0.098885
  0
VERTEX
  8
0
 10
321.541527
 20
388.734751
 42
-0.096837
  0
VERTEX
  8
0
 10
321.549902
 20
388.253868
 42
-0.094762
  0
VERTEX
  8
0
 10
321.377116
 20
387.801170
 42
0.078447
  0
VERTEX
  8
0
 10
321.215617
 20
387.415972
 42
0.299182
  0
VERTEX
  8
0
 10
321.298559
 20
387.182232
 42
0.206443
  0
VERTEX
  8
0
 10
321.594434
 20
387.109440
 42
0.045672
  0
VERTEX
  8
0
 10
322.110804
 20
387.245268
 42
0.074144
  0
VERTEX
  8
0
 10
322.622850
 20
387.522688
 42
0.079216
  0
VERTEX
  8
0
 10
323.018486
 20
387.932204
 42
0.087195
  0
VERTEX
  8
0
 10
323.239824
 20
388.407140
 42
0.120790
  0
VERTEX
  8
0
 10
323.250000
 20
388.875000
 42
-0.448102
  0
VERTEX
  8
0
 10
323.652129
 20
389.433682
 42
-0.010392
  0
VERTEX
  8
0
 10
327.283737
 20
389.737941
 42
-0.012334
  0
VERTEX
  8
0
 10
332.654814
 20
389.942865
 42
-0.003367
  0
VERTEX
  8
0
 10
341.139757
 20
390.000000
 42
-0.002670
  0
VERTEX
  8
0
 10
351.251425
 20
389.946007
 42
-0.018132
  0
VERTEX
  8
0
 10
356.242456
 20
389.711565
 42
-0.035294
  0
VERTEX
  8
0
 10
359.126599
 20
389.264583
 42
-0.180707
  0
VERTEX
  8
0
 10
360.457432
 20
388.389103
 42
0.030934
  0
VERTEX
  8
0
 10
361.184606
 20
387.513794
 42
0.201734
  0
VERTEX
  8
0
 10
361.696289
 20
387.286759
 42
0.179420
  0
VERTEX
  8
0
 10
362.252948
 20
387.480907
 42
0.023693
  0
VERTEX
  8
0
 10
363.192953
 20
388.335810
 42
-0.103843
  0
VERTEX
  8
0
 10
364.234802
 20
389.016096
 42
-0.031659
  0
VERTEX
  8
0
 10
366.038970
 20
389.590463
 42
-0.027366
  0
VERTEX
  8
0
 10
368.368061
 20
390.038864
 42
-0.017231
  0
VERTEX
  8
0
 10
371.125279
 20
390.318344
 42
0.018503
  0
VERTEX
  8
0
 10
373.838428
 20
390.600333
 42
0.015037
  0
VERTEX
  8
0
 10
376.719553
 20
391.096782
 42
0.015300
  0
VERTEX
  8
0
 10
379.348748
 20
391.716007
 42
0.037746
  0
VERTEX
  8
0
 10
381.217881
 20
392.371637
 42
-0.005358
  0
VERTEX
  8
0
 10
383.989742
 20
393.550422
 42
-0.054370
  0
VERTEX
  8
0
 10
385.190178
 20
393.899189
 42
-0.223372
  0
VERTEX
  8
0
 10
385.753550
 20
393.746050
 42
-0.219909
  0
VERTEX
  8
0
 10
386.000000
 20
393.212804
 42
-0.226399
  0
VERTEX
  8
0
 10
385.850399
 20
392.899347
 42
-0.064874
  0
VERTEX
  8
0
 10
385.379297
 20
392.610091
 42
-0.051404
  0
VERTEX
  8
0
 10
384.696145
 20
392.384942
 42
-0.035129
  0
VERTEX
  8
0
 10
383.886968
 20
392.266439
 42
0.034928
  0
VERTEX
  8
0
 10
382.300732
 20
392.034788
 42
0.110098
  0
VERTEX
  8
0
 10
381.331210
 20
391.585263
 42
0.244605
  0
VERTEX
  8
0
 10
381.052355
 20
390.989143
 42
0.187955
  0
VERTEX
  8
0
 10
381.345891
 20
390.320776
 42
0.231403
  0
VERTEX
  8
0
 10
381.822208
 20
390.157307
 42
0.029758
  0
VERTEX
  8
0
 10
382.914200
 20
390.360194
 42
0.029813
  0
VERTEX
  8
0
 10
384.261948
 20
390.781253
 42
0.020641
  0
VERTEX
  8
0
 10
385.731011
 20
391.408771
 42
0.010701
  0
VERTEX
  8
0
 10
387.745018
 20
392.422640
 42
0.110342
  0
VERTEX
  8
0
 10
388.447753
 20
393.023694
 42
0.344910
  0
VERTEX
  8
0
 10
388.436858
 20
393.546686
 42
0.094151
  0
VERTEX
  8
0
 10
387.759987
 20
394.114442
 42
-0.264500
  0
VERTEX
  8
0
 10
386.769382
 20
395.754227
 42
-0.293687
  0
VERTEX
  8
0
 10
387.717521
 20
397.318057
 42
-0.115874
  0
VERTEX
  8
0
 10
390.923171
 20
398.047482
 42
-0.090099
  0
VERTEX
  8
0
 10
394.447603
 20
397.381733
 42
-0.030284
  0
VERTEX
  8
0
 10
395.322208
 20
396.983838
 42
-0.300954
  0
VERTEX
  8
0
 10
395.505611
 20
396.647022
 42
-0.198581
  0
VERTEX
  8
0
 10
395.293380
 20
396.237467
 42
-0.014513
  0
VERTEX
  8
0
 10
394.279390
 20
395.431470
 42
0.003623
  0
VERTEX
  8
0
 10
393.145896
 20
394.570087
 42
0.353884
  0
VERTEX
  8
0
 10
393.102173
 20
394.386220
 42
0.352606
  0
VERTEX
  8
0
 10
393.273009
 20
394.304536
 42
0.003612
  0
VERTEX
  8
0
 10
394.657546
 20
394.642191
 42
0.063769
  0
VERTEX
  8
0
 10
395.516550
 20
394.979125
 42
0.054329
  0
VERTEX
  8
0
 10
396.315042
 20
395.536868
 42
0.056782
  0
VERTEX
  8
0
 10
396.937236
 20
396.219533
 42
0.092732
  0
VERTEX
  8
0
 10
397.270342
 20
396.925787
 42
-0.069143
  0
VERTEX
  8
0
 10
397.548155
 20
397.594322
 42
-0.067643
  0
VERTEX
  8
0
 10
397.999354
 20
398.167368
 42
-0.073081
  0
VERTEX
  8
0
 10
398.548476
 20
398.561736
 42
-0.112286
  0
VERTEX
  8
0
 10
399.112796
 20
398.707805
 42
0.027184
  0
VERTEX
  8
0
 10
399.842183
 20
398.769219
 42
0.007604
  0
VERTEX
  8
0
 10
400.973759
 20
398.944368
 42
0.007647
  0
VERTEX
  8
0
 10
402.249688
 20
399.181913
 42
0.007974
  0
VERTEX
  8
0
 10
403.500000
 20
399.455355
 42
-0.006496
  0
VERTEX
  8
0
 10
405.101825
 20
399.810639
 42
-0.127736
  0
VERTEX
  8
0
 10
405.601834
 20
399.786208
 42
-0.563762
  0
VERTEX
  8
0
 10
405.655664
 20
399.567362
 42
-0.030184
  0
VERTEX
  8
0
 10
405.000000
 20
398.986551
 42
0.004785
  0
VERTEX
  8
0
 10
404.132955
 20
398.293749
 42
0.366737
  0
VERTEX
  8
0
 10
404.102742
 20
398.131458
 42
0.350100
  0
VERTEX
  8
0
 10
404.260135
 20
398.068901
 42
0.004630
  0
VERTEX
  8
0
 10
405.331787
 20
398.405668
 42
-0.006998
  0
VERTEX
  8
0
 10
406.068118
 20
398.633234
 42
-0.008455
  0
VERTEX
  8
0
 10
406.765674
 20
398.825415
 42
-0.007352
  0
VERTEX
  8
0
 10
407.356299
 20
398.968215
 42
-0.055688
  0
VERTEX
  8
0
 10
407.640804
 20
399.000000
 42
0.301110
  0
VERTEX
  8
0
 10
407.768878
 20
399.084818
 42
0.136025
  0
VERTEX
  8
0
 10
407.796300
 20
399.293750
 42
0.070413
  0
VERTEX
  8
0
 10
407.703429
 20
399.616140
 42
0.033138
  0
VERTEX
  8
0
 10
407.500000
 20
400.000000
 42
0.111412
  0
VERTEX
  8
0
 10
407.123976
 20
400.383556
 42
0.050262
  0
VERTEX
  8
0
 10
406.493350
 20
400.706250
 42
0.046318
  0
VERTEX
  8
0
 10
405.729296
 20
400.925923
 42
0.046881
  0
VERTEX
  8
0
 10
404.940983
 20
401.000000
 42
-0.048273
  0
VERTEX
  8
0
 10
404.198163
 20
401.071884
 42
-0.068272
  0
VERTEX
  8
0
 10
403.570164
 20
401.286479
 42
-0.088455
  0
VERTEX
  8
0
 10
403.147085
 20
401.602835
 42
-0.190322
  0
VERTEX
  8
0
 10
403.000000
 20
401.975249
 42
-0.246367
  0
VERTEX
  8
0
 10
403.172840
 20
402.304736
 42
-0.136041
  0
VERTEX
  8
0
 10
403.613582
 20
402.457746
 42
-0.073969
  0
VERTEX
  8
0
 10
404.324221
 20
402.397953
 42
-0.030620
  0
VERTEX
  8
0
 10
405.250000
 20
402.118830
 42
0.034433
  0
VERTEX
  8
0
 10
406.213451
 20
401.836337
 42
0.030439
  0
VERTEX
  8
0
 10
407.247139
 20
401.674271
 42
0.031695
  0
VERTEX
  8
0
 10
408.198380
 20
401.644496
 42
0.076286
  0
VERTEX
  8
0
 10
408.889196
 20
401.773313
 42
-0.047186
  0
VERTEX
  8
0
 10
409.384265
 20
401.895688
 42
-0.173956
  0
VERTEX
  8
0
 10
409.695473
 20
401.833757
 42
-0.296202
  0
VERTEX
  8
0
 10
409.798071
 20
401.623490
 42
-0.108319
  0
VERTEX
  8
0
 10
409.683184
 20
401.296399
 42
0.121493
  0
VERTEX
  8
0
 10
409.565142
 20
400.930129
 42
0.187540
  0
VERTEX
  8
0
 10
409.662516
 20
400.616234
 42
0.151429
  0
VERTEX
  8
0
 10
409.972407
 20
400.404841
 42
0.074657
  0
VERTEX
  8
0
 10
410.448648
 20
400.333333
 42
0.083045
  0
VERTEX
  8
0
 10
410.938518
 20
400.415261
 42
0.128425
  0
VERTEX
  8
0
 10
411.293838
 20
400.651562
 42
0.147603
  0
VERTEX
  8
0
 10
411.457923
 20
401.004317
 42
0.123431
  0
VERTEX
  8
0
 10
411.415164
 20
401.416667
 42
-0.135052
  0
VERTEX
  8
0
 10
411.292956
 20
402.932137
 42
-0.202481
  0
VERTEX
  8
0
 10
412.018767
 20
404.021863
 42
-0.157550
  0
VERTEX
  8
0
 10
413.491640
 20
404.431286
 42
-0.080654
  0
VERTEX
  8
0
 10
415.390117
 20
404.041777
 42
0.020937
  0
VERTEX
  8
0
 10
416.406472
 20
403.703329
 42
0.057433
  0
VERTEX
  8
0
 10
417.151411
 20
403.579406
 42
0.176431
  0
VERTEX
  8
0
 10
417.494447
 20
403.685204
 42
0.386696
  0
VERTEX
  8
0
 10
417.540837
 20
403.933925
 42
-0.108733
  0
VERTEX
  8
0
 10
417.399958
 20
404.336069
 42
-0.099734
  0
VERTEX
  8
0
 10
417.434372
 20
404.773748
 42
-0.095395
  0
VERTEX
  8
0
 10
417.639256
 20
405.179608
 42
-0.090122
  0
VERTEX
  8
0
 10
417.983688
 20
405.489919
 42
0.070784
  0
VERTEX
  8
0
 10
418.372497
 20
405.814038
 42
0.052784
  0
VERTEX
  8
0
 10
418.701458
 20
406.266083
 42
0.053342
  0
VERTEX
  8
0
 10
418.924953
 20
406.770564
 42
0.077769
  0
VERTEX
  8
0
 10
419.000000
 20
407.250147
 42
0.293818
  0
VERTEX
  8
0
 10
418.847957
 20
407.486547
 42
0.229008
  0
VERTEX
  8
0
 10
418.535395
 20
407.479494
 42
0.076960
  0
VERTEX
  8
0
 10
418.027449
 20
407.111916
 42
0.026769
  0
VERTEX
  8
0
 10
417.418365
 20
406.441130
 42
-0.002861
  0
VERTEX
  8
0
 10
416.409000
 20
405.216717
 42
-0.194068
  0
VERTEX
  8
0
 10
416.176033
 20
405.091771
 42
-0.533799
  0
VERTEX
  8
0
 10
416.077703
 20
405.208733
 42
-0.006470
  0
VERTEX
  8
0
 10
416.418365
 20
406.331787
 42
0.020107
  0
VERTEX
  8
0
 10
416.641185
 20
407.145608
 42
0.014063
  0
VERTEX
  8
0
 10
416.829145
 20
408.078055
 42
0.014215
  0
VERTEX
  8
0
 10
416.958885
 20
408.983250
 42
0.028490
  0
VERTEX
  8
0
 10
417.000000
 20
409.704232
 42
-0.042177
  0
VERTEX
  8
0
 10
417.060868
 20
410.424521
 42
-0.284944
  0
VERTEX
  8
0
 10
417.287616
 20
410.681086
 42
-0.221711
  0
VERTEX
  8
0
 10
417.671352
 20
410.625237
 42
-0.027966
  0
VERTEX
  8
0
 10
418.363000
 20
410.113700
 42
0.050429
  0
VERTEX
  8
0
 10
419.048560
 20
409.652739
 42
0.398609
  0
VERTEX
  8
0
 10
419.384996
 20
409.744921
 42
0.158648
  0
VERTEX
  8
0
 10
419.510648
 20
410.281385
 42
0.012792
  0
VERTEX
  8
0
 10
419.349145
 20
411.741255
 42
-0.003051
  0
VERTEX
  8
0
 10
419.136320
 20
413.373448
 42
-0.193637
  0
VERTEX
  8
0
 10
419.208882
 20
413.647336
 42
-0.557458
  0
VERTEX
  8
0
 10
419.363528
 20
413.633719
 42
-0.006261
  0
VERTEX
  8
0
 10
419.915860
 20
412.500000
 42
0.014782
  0
VERTEX
  8
0
 10
420.363577
 20
411.619443
 42
0.155734
  0
VERTEX
  8
0
 10
420.652086
 20
411.344203
 42
0.470242
  0
VERTEX
  8
0
 10
420.851781
 20
411.434879
 42
0.052433
  0
VERTEX
  8
0
 10
420.943369
 20
412.000000
 42
-0.023237
  0
VERTEX
  8
0
 10
421.019521
 20
412.741299
 42
-0.008842
  0
VERTEX
  8
0
 10
421.191788
 20
413.766247
 42
-0.008734
  0
VERTEX
  8
0
 10
421.418498
 20
414.875130
 42
-0.010577
  0
VERTEX
  8
0
 10
421.671178
 20
415.906372
 42
0.026599
  0
VERTEX
  8
0
 10
421.861963
 20
416.809188
 42
0.074372
  0
VERTEX
  8
0
 10
421.866223
 20
417.454441
 42
0.203937
  0
VERTEX
  8
0
 10
421.692060
 20
417.742224
 42
0.303161
  0
VERTEX
  8
0
 10
421.407524
 20
417.752331
 42
-0.291958
  0
VERTEX
  8
0
 10
421.050619
 20
417.757658
 42
-0.128046
  0
VERTEX
  8
0
 10
420.720381
 20
418.124422
 42
-0.070192
  0
VERTEX
  8
0
 10
420.467707
 20
418.842875
 42
-0.034496
  0
VERTEX
  8
0
 10
420.342711
 20
419.805986
 42
-0.004917
  0
VERTEX
  8
0
 10
420.263734
 20
421.375909
 42
-0.228369
  0
VERTEX
  8
0
 10
420.387906
 20
421.662697
 42
-0.463499
  0
VERTEX
  8
0
 10
420.601367
 20
421.629366
 42
-0.009413
  0
VERTEX
  8
0
 10
421.222453
 20
420.566981
 42
0.059010
  0
VERTEX
  8
0
 10
421.841718
 20
419.714224
 42
0.402580
  0
VERTEX
  8
0
 10
422.313321
 20
419.686192
 42
0.124805
  0
VERTEX
  8
0
 10
422.790510
 20
420.359748
 42
0.008268
  0
VERTEX
  8
0
 10
423.614686
 20
422.606954
 42
0.001399
  0
VERTEX
  8
0
 10
424.698723
 20
425.749325
 42
0.045493
  0
VERTEX
  8
0
 10
424.888972
 20
426.531938
 42
0.341216
  0
VERTEX
  8
0
 10
424.726352
 20
426.822587
 42
0.140827
  0
VERTEX
  8
0
 10
424.250000
 20
426.881579
 42
-0.064980
  0
VERTEX
  8
0
 10
421.878196
 20
426.817940
 42
-0.243206
  0
VERTEX
  8
0
 10
420.669889
 20
427.609757
 42
-0.117309
  0
VERTEX
  8
0
 10
420.113141
 20
429.545910
 42
-0.011613
  0
VERTEX
  8
0
 10
420.000000
 20
434.416667
 42
0.011415
  0
VERTEX
  8
0
 10
419.934550
 20
437.283229
 42
0.017637
  0
VERTEX
  8
0
 10
419.734273
 20
439.752604
 42
0.012240
  0
VERTEX
  8
0
 10
419.453713
 20
441.733803
 42
0.269396
  0
VERTEX
  8
0
 10
419.095398
 20
442.166667
 42
-0.222816
  0
VERTEX
  8
0
 10
418.172598
 20
443.100829
 42
-0.080948
  0
VERTEX
  8
0
 10
417.832184
 20
444.979388
 42
-0.085693
  0
VERTEX
  8
0
 10
418.111648
 20
446.788711
 42
-0.275880
  0
VERTEX
  8
0
 10
419.000000
 20
447.549517
 42
0.019638
  0
VERTEX
  8
0
 10
419.699483
 20
447.697960
 42
0.009768
  0
VERTEX
  8
0
 10
420.573438
 20
447.937880
 42
0.009680
  0
VERTEX
  8
0
 10
421.470552
 20
448.222106
 42
0.014027
  0
VERTEX
  8
0
 10
422.250000
 20
448.510369
 42
-0.048734
  0
VERTEX
  8
0
 10
423.055668
 20
448.746315
 42
-0.167551
  0
VERTEX
  8
0
 10
423.587212
 20
448.668957
 42
-0.202274
  0
VERTEX
  8
0
 10
423.897094
 20
448.297370
 42
-0.074119
  0
VERTEX
  8
0
 10
424.000000
 20
447.606989
 42
0.054448
  0
VERTEX
  8
0
 10
424.067143
 20
446.992230
 42
0.074128
  0
VERTEX
  8
0
 10
424.266249
 20
446.472053
 42
0.093739
  0
VERTEX
  8
0
 10
424.560542
 20
446.122995
 42
0.172528
  0
VERTEX
  8
0
 10
424.906380
 20
446.000000
 42
-0.243840
  0
VERTEX
  8
0
 10
425.210205
 20
445.842465
 42
-0.106581
  0
VERTEX
  8
0
 10
425.392877
 20
445.412500
 42
-0.070464
  0
VERTEX
  8
0
 10
425.424365
 20
444.766322
 42
-0.040966
  0
VERTEX
  8
0
 10
425.289749
 20
444.000000
 42
0.047860
  0
VERTEX
  8
0
 10
425.145018
 20
443.103917
 42
0.135244
  0
VERTEX
  8
0
 10
425.272537
 20
442.488673
 42
0.178848
  0
VERTEX
  8
0
 10
425.664554
 20
442.128121
 42
0.097724
  0
VERTEX
  8
0
 10
426.313818
 20
442.000000
 42
-0.104535
  0
VERTEX
  8
0
 10
426.937412
 20
441.868185
 42
-0.077012
  0
VERTEX
  8
0
 10
427.533315
 20
441.485937
 42
-0.073245
  0
VERTEX
  8
0
 10
428.011547
 20
440.918735
 42
-0.078235
  0
VERTEX
  8
0
 10
428.292801
 20
440.250000
 42
0.013861
  0
VERTEX
  8
0
 10
428.450648
 20
439.678963
 42
0.702491
  0
VERTEX
  8
0
 10
428.532127
 20
439.675000
 42
0.117850
  0
VERTEX
  8
0
 10
428.572725
 20
439.926596
 42
0.006114
  0
VERTEX
  8
0
 10
428.501024
 20
440.750000
 42
-0.032775
  0
VERTEX
  8
0
 10
428.472080
 20
441.612095
 42
-0.052852
  0
VERTEX
  8
0
 10
428.572725
 20
442.339063
 42
-0.071860
  0
VERTEX
  8
0
 10
428.775670
 20
442.837525
 42
-0.266202
  0
VERTEX
  8
0
 10
429.059217
 20
443.000000
 42
0.318272
  0
VERTEX
  8
0
 10
429.722963
 20
443.470127
 42
0.016183
  0
VERTEX
  8
0
 10
430.564123
 20
446.133674
 42
0.022340
  0
VERTEX
  8
0
 10
431.197949
 20
448.854682
 42
0.111932
  0
VERTEX
  8
0
 10
431.137712
 20
450.408359
 42
-0.135219
  0
VERTEX
  8
0
 10
431.140622
 20
450.816895
 42
-0.068199
  0
VERTEX
  8
0
 10
431.348586
 20
451.292622
 42
-0.059995
  0
VERTEX
  8
0
 10
431.717058
 20
451.759487
 42
-0.054443
  0
VERTEX
  8
0
 10
432.197214
 20
452.143046
 42
0.026024
  0
VERTEX
  8
0
 10
432.779909
 20
452.556650
 42
0.362169
  0
VERTEX
  8
0
 10
432.829036
 20
452.791123
 42
0.256333
  0
VERTEX
  8
0
 10
432.589927
 20
452.947957
 42
0.017478
  0
VERTEX
  8
0
 10
431.750000
 20
452.984687
 42
0.058650
  0
VERTEX
  8
0
 10
431.080701
 20
452.911840
 42
0.078206
  0
VERTEX
  8
0
 10
430.514063
 20
452.684416
 42
0.097254
  0
VERTEX
  8
0
 10
430.134631
 20
452.343714
 42
0.162721
  0
SEQEND
  0
POLYLINE
  8
0
 66
1
 70
1
  0
VERTEX
  8
0
 10
429.969374
 20
446.500000
 42
-0.190341
  0
VERTEX
  8
0
 10
429.877628
 20
446.267727
 42
-0.335455
  0
VERTEX
  8
0
 10
429.684621
 20
446.234375
 42
-0.102785
  0
VERTEX
  8
0
 10
429.374359
 20
446.485814
 42
-0.027796
  0
VERTEX
  8
0
 10
429.000000
 20
447.000000
 42
-0.026766
  0
VERTEX
  8
0
 10
428.628962
 20
447.647707
 42
-0.024204
  0
VERTEX
  8
0
 10
428.315379
 20
448.353125
 42
-0.024967
  0
VERTEX
  8
0
 10
428.096832
 20
449.012663
 42
-0.067616
  0
VERTEX
  8
0
 10
428.030626
 20
449.500000
 42
-0.190341
  0
VERTEX
  8
0
 10
428.122372
 20
449.732273
 42
-0.335455
  0
VERTEX
  8
0
 10
428.315379
 20
449.765625
 42
-0.102785
  0
VERTEX
  8
0
 10
428.625641
 20
449.514186
 42
-0.027796
  0
VERTEX
  8
0
 10
429.000000
 20
449.000000
 42
-0.026766
  0
VERTEX
  8
0
 10
429.371038
 20
448.352293
 42
-0.024204
  0
VERTEX
  8
0
 10
429.684621
 20
447.646875
 42
-0.024967
  0
VERTEX
  8
0
 10
429.903168
 20
446.987337
 42
-0.067616
  0
SEQEND
  0
POLYLINE
  8
0
 66
1
 70
1
  0
VERTEX
  8
0
 10
356.000000
 20
425.000000
 42
-0.105053
  0
VERTEX
  8
0
 10
355.918938
 20
424.618444
 42
-0.099167
  0
VERTEX
  8
0
 10
355.688914
 20
424.293750
 42
-0.096420
  0
VERTEX
  8
0
 10
355.345238
 20
424.076123
 42
-0.093332
  0
VERTEX
  8
0
 10
354.940983
 20
424.000000
 42
-0.108972
  0
VERTEX
  8
0
 10
354.586039
 20
424.078288
 42
-0.182303
  0
VERTEX
  8
0
 10
354.374600
 20
424.293750
 42
-0.161196
  0
VERTEX
  8
0
 10
354.343488
 20
424.617900
 42
-0.082592
  0
VERTEX
  8
0
 10
354.500000
 20
425.000000
 42
-0.029505
  0
VERTEX
  8
0
 10
354.768994
 20
425.382774
 42
-0.035638
  0
VERTEX
  8
0
 10
355.066025
 20
425.706250
 42
-0.038439
  0
VERTEX
  8
0
 10
355.348290
 20
425.934461
 42
-0.151918
  0
VERTEX
  8
0
 10
355.559017
 20
426.000000
 42
-0.210953
  0
VERTEX
  8
0
 10
355.727648
 20
425.925540
 42
-0.081139
  0
VERTEX
  8
0
 10
355.870461
 20
425.706250
 42
-0.061769
  0
VERTEX
  8
0
 10
355.967655
 20
425.382849
 42
-0.042167
  0
SEQEND
  0
POLYLINE
  8
0
 66
1
 70
1
  0
VERTEX
  8
0
 10
688.421475
 20
450.522740
 42
0.042824
  0
VERTEX
  8
0
 10
682.883683
 20
447.143474
 42
0.031072
  0
VERTEX
  8
0
 10
677.336626
 20
442.512631
 42
0.031629
  0
VERTEX
  8
0
 10
672.590443
 20
437.416054
 42
0.057955
  0
VERTEX
  8
0
 10
669.527617
 20
432.645974
 42
0.036185
  0
VERTEX
  8
0
 10
667.729916
 20
428.179842
 42
0.008343
  0
VERTEX
  8
0
 10
665.379559
 20
420.407321
 42
0.007455
  0
VERTEX
  8
0
 10
662.669739
 20
410.304437
 42
0.004039
  0
VERTEX
  8
0
 10
659.623075
 20
397.804063
 42
0.080376
  0
VERTEX
  8
0
 10
659.543209
 20
396.674369
 42
0.550715
  0
VERTEX
  8
0
 10
659.946685
 20
396.467289
 42
0.066319
  0
VERTEX
  8
0
 10
661.038872
 20
397.323802
 42
0.003945
  0
VERTEX
  8
0
 10
663.951718
 20
400.355433
 42
-0.079194
  0
VERTEX
  8
0
 10
673.478564
 20
407.676408
 42
-0.139535
  0
VERTEX
  8
0
 10
683.092973
 20
409.825074
 42
-0.119887
  0
VERTEX
  8
0
 10
693.431780
 20
406.671663
 42
-0.050343
  0
VERTEX
  8
0
 10
705.216106
 20
397.983867
 42
0.000000
  0
VERTEX
  8
0
 10
711.932211
 20
391.901996
 42
0.000000
  0
VERTEX
  8
0
 10
713.517868
 20
395.697007
 42
0.021056
  0
VERTEX
  8
0
 10
717.637877
 20
406.856388
 42
0.013775
  0
VERTEX
  8
0
 10
721.481784
 20
420.024472
 42
0.006003
  0
VERTEX
  8
0
 10
724.676969
 20
432.833166
 42
0.264634
  0
VERTEX
  8
0
 10
723.927590
 20
435.391483
 42
0.029901
  0
VERTEX
  8
0
 10
723.577383
 20
435.691679
 42
0.000185
  0
VERTEX
  8
0
 10
720.255785
 20
438.208940
 42
0.000760
  0
VERTEX
  8
0
 10
716.456363
 20
441.077027
 42
0.000485
  0
VERTEX
  8
0
 10
712.028274
 20
444.402406
 42
0.013446
  0
VERTEX
  8
0
 10
703.408709
 20
450.507501
 42
0.084122
  0
VERTEX
  8
0
 10
698.497096
 20
452.709879
 42
0.129854
  0
VERTEX
  8
0
 10
694.134266
 20
452.689869
 42
0.049905
  0
SEQEND
  0
POLYLINE
  8
0
 66
1
 70
1
  0
VERTEX
  8
0
 10
407.812500
 20
444.316886
 42
0.051402
  0
VERTEX
  8
0
 10
408.359369
 20
444.160852
 42
0.054150
  0
VERTEX
  8
0
 10
408.916927
 20
444.123424
 42
0.060344
  0
VERTEX
  8
0
 10
409.402231
 20
444.202593
 42
0.126455
  0
VERTEX
  8
0
 10
409.729167
 20
444.395833
 42
0.296942
  0
VERTEX
  8
0
 10
409.775380
 20
444.614691
 42
0.208169
  0
VERTEX
  8
0
 10
409.592839
 20
444.799335
 42
0.077125
  0
VERTEX
  8
0
 10
409.112848
 20
444.910055
 42
0.028489
  0
VERTEX
  8
0
 10
408.416667
 20
444.921053
 42
0.018894
  0
VERTEX
  8
0
 10
407.670344
 20
444.862007
 42
0.168741
  0
VERTEX
  8
0
 10
407.378580
 20
444.720685
 42
0.470617
  0
VERTEX
  8
0
 10
407.395823
 20
444.538436
 42
0.054073
  0
SEQEND
  0
POLYLINE
  8
0
 66
1
 70
1
  0
VERTEX
  8
0
 10
423.650663
 20
437.532025
 42
0.066719
  0
VERTEX
  8
0
 10
423.506898
 20
436.926665
 42
0.072258
  0
VERTEX
  8
0
 10
423.533742
 20
436.321649
 42
0.081026
  0
VERTEX
  8
0
 10
423.720854
 20
435.809536
 42
0.126981
  0
VERTEX
  8
0
 10
424.043674
 20
435.473008
 42
0.214542
  0
VERTEX
  8
0
 10
424.405148
 20
435.425420
 42
0.177225
  0
VERTEX
  8
0
 10
424.719079
 20
435.660421
 42
0.099152
  0
VERTEX
  8
0
 10
424.931736
 20
436.193244
 42
0.045552
  0
VERTEX
  8
0
 10
425.000000
 20
436.940983
 42
0.020503
  0
VERTEX
  8
0
 10
424.936989
 20
438.476999
 42
0.275668
  0
VERTEX
  8
0
 10
424.622791
 20
438.917133
 42
0.395517
  0
VERTEX
  8
0
 10
424.205874
 20
438.769457
 42
0.027681
  0
SEQEND
  0
POLYLINE
  8
0
 66
1
 70
1
  0
VERTEX
  8
0
 10
425.804392
 20
435.084515
 42
0.047768
  0
VERTEX
  8
0
 10
424.901812
 20
433.800337
 42
0.173459
  0
VERTEX
  8
0
 10
424.732047
 20
432.832671
 42
0.258028
  0
VERTEX
  8
0
 10
425.222363
 20
432.219939
 42
0.098034
  0
VERTEX
  8
0
 10
426.333333
 20
432.000000
 42
0.066752
  0
VERTEX
  8
0
 10
426.671462
 20
432.045344
 42
0.196453
  0
VERTEX
  8
0
 10
426.854085
 20
432.185498
 42
0.239312
  0
VERTEX
  8
0
 10
426.866089
 20
432.390570
 42
0.093793
  0
VERTEX
  8
0
 10
426.701850
 20
432.631483
 42
-0.178012
  0
VERTEX
  8
0
 10
426.529218
 20
433.004876
 42
-0.056832
  0
VERTEX
  8
0
 10
426.549616
 20
433.626345
 42
-0.048477
  0
VERTEX
  8
0
 10
426.734110
 20
434.369838
 42
-0.037840
  0
VERTEX
  8
0
 10
427.070368
 20
435.131483
 42
0.011543
  0
VERTEX
  8
0
 10
427.852731
 20
436.678132
 42
0.563669
  0
VERTEX
  8
0
 10
427.696705
 20
436.915591
 42
0.202404
  0
VERTEX
  8
0
 10
427.219292
 20
436.692876
 42
0.006698
  0
SEQEND
  0
POLYLINE
  8
0
 66
1
 70
1
  0
VERTEX
  8
0
 10
424.564293
 20
429.293128
 42
0.008399
  0
VERTEX
  8
0
 10
424.218210
 20
428.336218
 42
0.286372
  0
VERTEX
  8
0
 10
424.270328
 20
428.111181
 42
0.400052
  0
VERTEX
  8
0
 10
424.463552
 20
428.106486
 42
0.011214
  0
VERTEX
  8
0
 10
425.124088
 20
428.733333
 42
0.043285
  0
VERTEX
  8
0
 10
425.558688
 20
429.246577
 42
0.063152
  0
VERTEX
  8
0
 10
425.837219
 20
429.768815
 42
0.082976
  0
VERTEX
  8
0
 10
425.927901
 20
430.220211
 42
0.207420
  0
VERTEX
  8
0
 10
425.806872
 20
430.526461
 42
0.278911
  0
VERTEX
  8
0
 10
425.538684
 20
430.592490
 42
0.120343
  0
VERTEX
  8
0
 10
425.210949
 20
430.395085
 42
0.070189
  0
VERTEX
  8
0
 10
424.866277
 20
429.940734
 42
0.036269
  0
SEQEND
  0
POLYLINE
  8
0
 66
1
 70
1
  0
VERTEX
  8
0
 10
335.321770
 20
419.673922
 42
0.018455
  0
VERTEX
  8
0
 10
332.570908
 20
418.540834
 42
0.116090
  0
VERTEX
  8
0
 10
331.378780
 20
417.617954
 42
0.646927
  0
VERTEX
  8
0
 10
331.608958
 20
417.162055
 42
0.046559
  0
VERTEX
  8
0
 10
333.500000
 20
417.425129
 42
0.029711
  0
VERTEX
  8
0
 10
334.755962
 20
417.800860
 42
0.024263
  0
VERTEX
  8
0
 10
336.048884
 20
418.345376
 42
0.024915
  0
VERTEX
  8
0
 10
337.192025
 20
418.965347
 42
0.057125
  0
VERTEX
  8
0
 10
337.964286
 20
419.565805
 42
0.015979
  0
VERTEX
  8
0
 10
338.960567
 20
420.606028
 42
0.634559
  0
VERTEX
  8
0
 10
338.866149
 20
420.829960
 42
0.096757
  0
VERTEX
  8
0
 10
338.225473
 20
420.731807
 42
0.002221
  0
SEQEND
  0
POLYLINE
  8
0
 66
1
 70
1
  0
VERTEX
  8
0
 10
808.959312
 20
409.718197
 42
0.057109
  0
VERTEX
  8
0
 10
806.579469
 20
407.349134
 42
0.027153
  0
VERTEX
  8
0
 10
804.066523
 20
403.823797
 42
0.025133
  0
VERTEX
  8
0
 10
801.670132
 20
399.586818
 42
0.022913
  0
VERTEX
  8
0
 10
799.629151
 20
395.000000
 42
0.025535
  0
VERTEX
  8
0
 10
795.089992
 20
381.383952
 42
0.018119
  0
VERTEX
  8
0
 10
791.348647
 20
365.722076
 42
0.018319
  0
VERTEX
  8
0
 10
788.819601
 20
350.210457
 42
0.031257
  0
VERTEX
  8
0
 10
788.000000
 20
337.112517
 42
0.027822
  0
VERTEX
  8
0
 10
788.453804
 20
328.963384
 42
0.073789
  0
VERTEX
  8
0
 10
789.941762
 20
323.337651
 42
0.096660
  0
VERTEX
  8
0
 10
792.697055
 20
319.298159
 42
0.075559
  0
VERTEX
  8
0
 10
797.000000
 20
316.169780
 42
0.032035
  0
VERTEX
  8
0
 10
799.907838
 20
314.892927
 42
0.057389
  0
VERTEX
  8
0
 10
802.441604
 20
314.286130
 42
0.036107
  0
VERTEX
  8
0
 10
805.747393
 20
314.126595
 42
0.006271
  0
VERTEX
  8
0
 10
812.000000
 20
314.354933
 42
0.013255
  0
VERTEX
  8
0
 10
816.948401
 20
314.729504
 42
0.012112
  0
VERTEX
  8
0
 10
822.021721
 20
315.373600
 42
0.012437
  0
VERTEX
  8
0
 10
826.888949
 20
316.236069
 42
0.017097
  0
VERTEX
  8
0
 10
831.210944
 20
317.268308
 42
-0.011686
  0
VERTEX
  8
0
 10
837.106150
 20
318.743875
 42
-0.076447
  0
VERTEX
  8
0
 10
840.140580
 20
318.954472
 42
-0.236403
  0
VERTEX
  8
0
 10
841.518169
 20
318.114430
 42
-0.187832
  0
VERTEX
  8
0
 10
841.847367
 20
316.380173
 42
-0.246943
  0
VERTEX
  8
0
 10
838.379859
 20
311.984903
 42
-0.003915
  0
VERTEX
  8
0
 10
808.276475
 20
298.871645
 42
-0.007401
  0
VERTEX
  8
0
 10
766.937327
 20
281.966374
 42
-0.002367
  0
VERTEX
  8
0
 10
705.000000
 20
258.038895
 42
0.000000
  0
VERTEX
  8
0
 10
666.500000
 20
243.374721
 42
0.000000
  0
VERTEX
  8
0
 10
664.736232
 20
236.437360
 42
0.002606
  0
VERTEX
  8
0
 10
661.640904
 20
223.991348
 42
0.002237
  0
VERTEX
  8
0
 10
658.510832
 20
210.864055
 42
0.000191
  0
VERTEX
  8
0
 10
655.434997
 20
197.680761
 42
0.235208
  0
VERTEX
  8
0
 10
655.557561
 20
197.164719
 42
0.318716
  0
VERTEX
  8
0
 10
657.144248
 20
196.745151
 42
0.000179
  0
VERTEX
  8
0
 10
705.572097
 20
214.913819
 42
0.002409
  0
VERTEX
  8
0
 10
749.887032
 20
231.801594
 42
0.005600
  0
VERTEX
  8
0
 10
782.900035
 20
244.991712
 42
0.005208
  0
VERTEX
  8
0
 10
807.677066
 20
255.517766
 42
0.016830
  0
VERTEX
  8
0
 10
823.812995
 20
263.228882
 42
0.025199
  0
VERTEX
  8
0
 10
835.061003
 20
269.816900
 42
0.045981
  0
VERTEX
  8
0
 10
843.379646
 20
276.436214
 42
0.047999
  0
VERTEX
  8
0
 10
847.391832
 20
281.096094
 42
0.046478
  0
VERTEX
  8
0
 10
850.491423
 20
286.484173
 42
0.036537
  0
VERTEX
  8
0
 10
853.072947
 20
293.424431
 42
0.015704
  0
VERTEX
  8
0
 10
855.534937
 20
303.000000
 42
-0.000053
  0
VERTEX
  8
0
 10
856.609852
 20
307.798719
 42
-0.000050
  0
VERTEX
  8
0
 10
857.710472
 20
312.707459
 42
-0.000049
  0
VERTEX
  8
0
 10
858.688785
 20
317.066662
 42
-0.000170
  0
VERTEX
  8
0
 10
859.325452
 20
319.897734
 42
0.000000
  0
VERTEX
  8
0
 10
860.541249
 20
325.295467
 42
0.000000
  0
VERTEX
  8
0
 10
874.520625
 20
330.736485
 42
0.001494
  0
VERTEX
  8
0
 10
879.910250
 20
332.852785
 42
0.002358
  0
VERTEX
  8
0
 10
884.519850
 20
334.703904
 42
0.000561
  0
VERTEX
  8
0
 10
888.545089
 20
336.347705
 42
0.097868
  0
VERTEX
  8
0
 10
888.929928
 20
336.602013
 42
0.146768
  0
VERTEX
  8
0
 10
889.538457
 20
337.715166
 42
0.000239
  0
VERTEX
  8
0
 10
894.191542
 20
359.723974
 42
0.000158
  0
VERTEX
  8
0
 10
898.870309
 20
381.941373
 42
0.253383
  0
VERTEX
  8
0
 10
898.649492
 20
382.683842
 42
0.277396
  0
VERTEX
  8
0
 10
898.078282
 20
382.826180
 42
0.000469
  0
VERTEX
  8
0
 10
887.987683
 20
379.727903
 42
0.002998
  0
VERTEX
  8
0
 10
876.041988
 20
375.969209
 42
0.001436
  0
VERTEX
  8
0
 10
860.744577
 20
371.006414
 42
0.000000
  0
VERTEX
  8
0
 10
851.989153
 20
368.138163
 42
0.000000
  0
VERTEX
  8
0
 10
850.452431
 20
370.319082
 42
-0.010280
  0
VERTEX
  8
0
 10
849.521886
 20
371.699115
 42
-0.001106
  0
VERTEX
  8
0
 10
847.440968
 20
374.942122
 42
-0.001359
  0
VERTEX
  8
0
 10
844.981912
 20
378.816337
 42
-0.001094
  0
VERTEX
  8
0
 10
842.358594
 20
382.994525
 42
0.011407
  0
VERTEX
  8
0
 10
836.549708
 20
391.836114
 42
0.017258
  0
VERTEX
  8
0
 10
831.061998
 20
399.228220
 42
0.019731
  0
VERTEX
  8
0
 10
826.113236
 20
404.955871
 42
0.053238
  0
VERTEX
  8
0
 10
822.049442
 20
408.465737
 42
0.069128
  0
VERTEX
  8
0
 10
818.789360
 20
410.113455
 42
0.058705
  0
VERTEX
  8
0
 10
815.015885
 20
410.928260
 42
0.062896
  0
VERTEX
  8
0
 10
811.480481
 20
410.821325
 42
0.129001
  0
SEQEND
  0
POLYLINE
  8
0
 66
1
 70
1
  0
VERTEX
  8
0
 10
398.000000
 20
396.781892
 42
0.221622
  0
VERTEX
  8
0
 10
398.229227
 20
396.290137
 42
0.192837
  0
VERTEX
  8
0
 10
398.773240
 20
396.111419
 42
0.071567
  0
VERTEX
  8
0
 10
399.789441
 20
396.324277
 42
0.014624
  0
VERTEX
  8
0
 10
401.500000
 20
397.004750
 42
0.007588
  0
VERTEX
  8
0
 10
402.633847
 20
397.515229
 42
0.528339
  0
VERTEX
  8
0
 10
402.662063
 20
397.689566
 42
0.202694
  0
VERTEX
  8
0
 10
402.381477
 20
397.794913
 42
0.003655
  0
VERTEX
  8
0
 10
400.750000
 20
397.716356
 42
0.026771
  0
VERTEX
  8
0
 10
399.696378
 20
397.601105
 42
0.041294
  0
VERTEX
  8
0
 10
398.807813
 20
397.378922
 42
0.049382
  0
VERTEX
  8
0
 10
398.179765
 20
397.093734
 42
0.267593
  0
SEQEND
  0
POLYLINE
  8
0
 66
1
 70
1
  0
VERTEX
  8
0
 10
462.500000
 20
387.388702
 42
0.014652
  0
VERTEX
  8
0
 10
443.587567
 20
381.608574
 42
0.004273
  0
VERTEX
  8
0
 10
414.831110
 20
371.615324
 42
0.003950
  0
VERTEX
  8
0
 10
380.190961
 20
358.935219
 42
0.002797
  0
VERTEX
  8
0
 10
341.500000
 20
344.177304
 42
0.001228
  0
VERTEX
  8
0
 10
323.101659
 20
336.989460
 42
0.036729
  0
VERTEX
  8
0
 10
318.611449
 20
334.829706
 42
0.131879
  0
VERTEX
  8
0
 10
316.385848
 20
332.610339
 42
0.059897
  0
VERTEX
  8
0
 10
314.753153
 20
328.800846
 42
-0.003071
  0
VERTEX
  8
0
 10
313.811458
 20
325.661148
 42
-0.000457
  0
VERTEX
  8
0
 10
311.869251
 20
319.347854
 42
-0.000514
  0
VERTEX
  8
0
 10
309.560341
 20
311.894089
 42
-0.000443
  0
VERTEX
  8
0
 10
307.118487
 20
304.064188
 42
0.001270
  0
VERTEX
  8
0
 10
304.803755
 20
296.598475
 42
0.002101
  0
VERTEX
  8
0
 10
302.892162
 20
290.282776
 42
0.000192
  0
VERTEX
  8
0
 10
301.210073
 20
284.632020
 42
0.303717
  0
VERTEX
  8
0
 10
301.269145
 20
284.441586
 42
0.260261
  0
VERTEX
  8
0
 10
301.477926
 20
284.405520
 42
0.000038
  0
VERTEX
  8
0
 10
313.622811
 20
288.677671
 42
0.000895
  0
VERTEX
  8
0
 10
327.070736
 20
293.436385
 42
0.000539
  0
VERTEX
  8
0
 10
343.000000
 20
299.124603
 42
-0.000330
  0
VERTEX
  8
0
 10
360.793386
 20
305.486871
 42
-0.000265
  0
VERTEX
  8
0
 10
379.946875
 20
312.309749
 42
-0.000268
  0
VERTEX
  8
0
 10
397.658197
 20
318.597626
 42
-0.000684
  0
VERTEX
  8
0
 10
410.500000
 20
323.129200
 42
0.000061
  0
VERTEX
  8
0
 10
420.967680
 20
326.808334
 42
0.000071
  0
VERTEX
  8
0
 10
430.918750
 20
330.308856
 42
0.000063
  0
VERTEX
  8
0
 10
439.338772
 20
333.273340
 42
0.000429
  0
VERTEX
  8
0
 10
443.500000
 20
334.743007
 42
-0.027876
  0
VERTEX
  8
0
 10
454.521842
 20
337.967649
 42
-0.094408
  0
VERTEX
  8
0
 10
461.978750
 20
338.270773
 42
-0.184322
  0
VERTEX
  8
0
 10
466.288819
 20
335.847527
 42
-0.173099
  0
VERTEX
  8
0
 10
468.030409
 20
331.095012
 42
0.117217
  0
VERTEX
  8
0
 10
468.437161
 20
329.445934
 42
0.597337
  0
VERTEX
  8
0
 10
469.157517
 20
329.432475
 42
0.041030
  0
VERTEX
  8
0
 10
470.607624
 20
332.589813
 42
0.003530
  0
VERTEX
  8
0
 10
473.583436
 20
340.963129
 42
0.012793
  0
VERTEX
  8
0
 10
477.098015
 20
351.979482
 42
0.011692
  0
VERTEX
  8
0
 10
480.159705
 20
363.495258
 42
0.011211
  0
VERTEX
  8
0
 10
482.395233
 20
373.779051
 42
0.047823
  0
VERTEX
  8
0
 10
482.997308
 20
380.027494
 42
0.077272
  0
VERTEX
  8
0
 10
482.014172
 20
386.371376
 42
0.233622
  0
VERTEX
  8
0
 10
479.063705
 20
389.432459
 42
0.132722
  0
VERTEX
  8
0
 10
473.420169
 20
389.889929
 42
0.021076
  0
SEQEND
  0
POLYLINE
  8
0
 66
1
 70
1
  0
VERTEX
  8
0
 10
315.697152
 20
383.118051
 42
0.006384
  0
VERTEX
  8
0
 10
315.036926
 20
380.785259
 42
0.008920
  0
VERTEX
  8
0
 10
314.510749
 20
378.682539
 42
0.005887
  0
VERTEX
  8
0
 10
314.124033
 20
376.916646
 42
0.107528
  0
VERTEX
  8
0
 10
314.129996
 20
376.344458
 42
-0.103938
  0
VERTEX
  8
0
 10
314.138578
 20
375.854678
 42
-0.017123
  0
VERTEX
  8
0
 10
313.927439
 20
374.927292
 42
-0.018185
  0
VERTEX
  8
0
 10
313.596945
 20
373.837563
 42
-0.015174
  0
VERTEX
  8
0
 10
313.169464
 20
372.705897
 42
0.014043
  0
VERTEX
  8
0
 10
311.784760
 20
369.065119
 42
0.058755
  0
VERTEX
  8
0
 10
311.278783
 20
366.780779
 42
0.148704
  0
VERTEX
  8
0
 10
311.527641
 20
365.518413
 42
0.277003
  0
VERTEX
  8
0
 10
312.391592
 20
365.000000
 42
0.059537
  0
VERTEX
  8
0
 10
313.006696
 20
365.073504
 42
0.078426
  0
VERTEX
  8
0
 10
313.527530
 20
365.290279
 42
0.096771
  0
VERTEX
  8
0
 10
313.876351
 20
365.611268
 42
0.159837
  0
VERTEX
  8
0
 10
314.000000
 20
365.988182
 42
-0.264451
  0
VERTEX
  8
0
 10
314.239934
 20
366.410103
 42
-0.037321
  0
VERTEX
  8
0
 10
315.169661
 20
366.873123
 42
-0.034482
  0
VERTEX
  8
0
 10
316.456233
 20
367.297360
 42
-0.022757
  0
VERTEX
  8
0
 10
317.981824
 20
367.613084
 42
0.023061
  0
VERTEX
  8
0
 10
319.549969
 20
367.938607
 42
0.052879
  0
VERTEX
  8
0
 10
320.679186
 20
368.359078
 42
0.094352
  0
VERTEX
  8
0
 10
321.286200
 20
368.820781
 42
0.333045
  0
VERTEX
  8
0
 10
321.327315
 20
369.279410
 42
-0.044996
  0
VERTEX
  8
0
 10
321.144482
 20
369.645080
 42
-0.354084
  0
VERTEX
  8
0
 10
321.197879
 20
369.813568
 42
-0.257463
  0
VERTEX
  8
0
 10
321.407718
 20
369.830241
 42
-0.032233
  0
VERTEX
  8
0
 10
321.825271
 20
369.607989
 42
0.196091
  0
VERTEX
  8
0
 10
323.229883
 20
369.372217
 42
0.014139
  0
VERTEX
  8
0
 10
327.127507
 20
370.364287
 42
0.020699
  0
VERTEX
  8
0
 10
331.085650
 20
371.671177
 42
0.046693
  0
VERTEX
  8
0
 10
333.921840
 20
373.053892
 42
0.028159
  0
VERTEX
  8
0
 10
334.611544
 20
373.529032
 42
0.532198
  0
VERTEX
  8
0
 10
334.596824
 20
373.748769
 42
0.152362
  0
VERTEX
  8
0
 10
334.176003
 20
373.844359
 42
0.008050
  0
VERTEX
  8
0
 10
332.787812
 20
373.711895
 42
0.020736
  0
VERTEX
  8
0
 10
331.697844
 20
373.544152
 42
0.023145
  0
VERTEX
  8
0
 10
330.665389
 20
373.291005
 42
0.023284
  0
VERTEX
  8
0
 10
329.813891
 20
372.996214
 42
0.101737
  0
VERTEX
  8
0
 10
329.371146
 20
372.704479
 42
-0.090953
  0
VERTEX
  8
0
 10
328.978690
 20
372.433679
 42
-0.035785
  0
VERTEX
  8
0
 10
328.359545
 20
372.206941
 42
-0.033941
  0
VERTEX
  8
0
 10
327.638323
 20
372.051974
 42
-0.035964
  0
VERTEX
  8
0
 10
326.916667
 20
372.000000
 42
0.053182
  0
VERTEX
  8
0
 10
326.222590
 20
371.925965
 42
0.058461
  0
VERTEX
  8
0
 10
325.582813
 20
371.707313
 42
0.066342
  0
VERTEX
  8
0
 10
325.089429
 20
371.385053
 42
0.135029
  0
VERTEX
  8
0
 10
324.833333
 20
371.003620
 42
-0.750652
  0
VERTEX
  8
0
 10
324.689426
 20
371.009362
 42
-0.028268
  0
VERTEX
  8
0
 10
324.532853
 20
371.838868
 42
-0.015258
  0
VERTEX
  8
0
 10
324.386807
 20
373.301454
 42
-0.006689
  0
VERTEX
  8
0
 10
324.278505
 20
375.246192
 42
0.020399
  0
VERTEX
  8
0
 10
324.086176
 20
377.556797
 42
0.036725
  0
VERTEX
  8
0
 10
323.713753
 20
379.420269
 42
0.045991
  0
VERTEX
  8
0
 10
323.187455
 20
380.807597
 42
0.121827
  0
VERTEX
  8
0
 10
322.511134
 20
381.615517
 42
-0.077900
  0
VERTEX
  8
0
 10
321.950483
 20
382.177807
 42
-0.076632
  0
VERTEX
  8
0
 10
321.584958
 20
382.887715
 42
-0.079307
  0
VERTEX
  8
0
 10
321.458276
 20
383.652080
 42
-0.093362
  0
VERTEX
  8
0
 10
321.589618
 20
384.372945
 42
0.105884
  0
VERTEX
  8
0
 10
321.758902
 20
385.453330
 42
0.355892
  0
VERTEX
  8
0
 10
321.310158
 20
385.945393
 42
0.179629
  0
VERTEX
  8
0
 10
320.341513
 20
385.741075
 42
0.046239
  0
VERTEX
  8
0
 10
319.053296
 20
384.750000
 42
-0.016946
  0
VERTEX
  8
0
 10
318.560129
 20
384.322420
 42
-0.096853
  0
VERTEX
  8
0
 10
318.255398
 20
384.160937
 42
-0.522020
  0
VERTEX
  8
0
 10
318.156002
 20
384.239365
 42
-0.105719
  0
VERTEX
  8
0
 10
318.228164
 20
384.500000
 42
0.092816
  0
VERTEX
  8
0
 10
318.383103
 20
385.008695
 42
0.038887
  0
VERTEX
  8
0
 10
318.406694
 20
385.727243
 42
0.036749
  0
VERTEX
  8
0
 10
318.312277
 20
386.521090
 42
0.039412
  0
VERTEX
  8
0
 10
318.103506
 20
387.273594
 42
0.339572
  0
VERTEX
  8
0
 10
317.683160
 20
387.541055
 42
0.244154
  0
VERTEX
  8
0
 10
317.194479
 20
387.229910
 42
0.049698
  0
VERTEX
  8
0
 10
316.553965
 20
385.816831
 42
0.009422
  0
SEQEND
  0
POLYLINE
  8
0
 66
1
 70
1
  0
VERTEX
  8
0
 10
316.345077
 20
378.456872
 42
-0.035865
  0
VERTEX
  8
0
 10
316.083816
 20
377.899181
 42
-0.069269
  0
VERTEX
  8
0
 10
315.786868
 20
377.507038
 42
-0.118528
  0
VERTEX
  8
0
 10
315.505460
 20
377.335123
 42
-0.281567
  0
VERTEX
  8
0
 10
315.276326
 20
377.390341
 42
-0.156651
  0
VERTEX
  8
0
 10
315.142323
 20
377.651151
 42
-0.070517
  0
VERTEX
  8
0
 10
315.133355
 20
378.040231
 42
-0.059701
  0
VERTEX
  8
0
 10
315.242038
 20
378.490157
 42
-0.049364
  0
VERTEX
  8
0
 10
315.458881
 20
378.933469
 42
-0.030391
  0
VERTEX
  8
0
 10
316.120758
 20
379.871774
 42
-0.361950
  0
VERTEX
  8
0
 10
316.525317
 20
379.954259
 42
-0.344086
  0
VERTEX
  8
0
 10
316.696703
 20
379.564815
 42
-0.029555
  0
SEQEND
  0
POLYLINE
  8
0
 66
1
 70
1
  0
VERTEX
  8
0
 10
313.982211
 20
367.966761
 42
-0.030972
  0
VERTEX
  8
0
 10
312.937420
 20
366.275300
 42
-0.604667
  0
VERTEX
  8
0
 10
312.460045
 20
366.338750
 42
-0.162227
  0
VERTEX
  8
0
 10
312.427974
 20
367.432323
 42
-0.016603
  0
VERTEX
  8
0
 10
313.267390
 20
369.919146
 42
-0.018844
  0
VERTEX
  8
0
 10
313.787563
 20
371.161842
 42
-0.073452
  0
VERTEX
  8
0
 10
314.243499
 20
371.856617
 42
-0.310905
  0
VERTEX
  8
0
 10
314.573800
 20
371.937639
 42
-0.257788
  0
VERTEX
  8
0
 10
314.813231
 20
371.655610
 42
-0.073084
  0
VERTEX
  8
0
 10
314.853096
 20
370.909673
 42
-0.032277
  0
VERTEX
  8
0
 10
314.698327
 20
369.932308
 42
-0.031080
  0
VERTEX
  8
0
 10
314.397101
 20
368.899247
 42
-0.036400
  0
SEQEND
  0
POLYLINE
  8
0
 66
1
 70
1
  0
VERTEX
  8
0
 10
372.000000
 20
388.000000
 42
0.033010
  0
VERTEX
  8
0
 10
373.319161
 20
387.266028
 42
0.110887
  0
VERTEX
  8
0
 10
374.277708
 20
387.050802
 42
0.372932
  0
VERTEX
  8
0
 10
374.633474
 20
387.359022
 42
0.175918
  0
VERTEX
  8
0
 10
374.500000
 20
388.000000
 42
0.101161
  0
VERTEX
  8
0
 10
374.140373
 20
388.382022
 42
0.052761
  0
VERTEX
  8
0
 10
373.566787
 20
388.701752
 42
0.049393
  0
VERTEX
  8
0
 10
372.883651
 20
388.916365
 42
0.053738
  0
VERTEX
  8
0
 10
372.190983
 20
388.984687
 42
0.012098
  0
VERTEX
  8
0
 10
371.238528
 20
388.953006
 42
0.343021
  0
VERTEX
  8
0
 10
371.064256
 20
388.800669
 42
0.295079
  0
VERTEX
  8
0
 10
371.157251
 20
388.569384
 42
0.010223
  0
SEQEND
  0
POLYLINE
  8
0
 66
1
 70
1
  0
VERTEX
  8
0
 10
348.500000
 20
380.000000
 42
0.014943
  0
VERTEX
  8
0
 10
350.302905
 20
379.288301
 42
0.086739
  0
VERTEX
  8
0
 10
351.306306
 20
379.112913
 42
0.378432
  0
VERTEX
  8
0
 10
351.631038
 20
379.399772
 42
0.170953
  0
VERTEX
  8
0
 10
351.500000
 20
380.000000
 42
0.125173
  0
VERTEX
  8
0
 10
351.107776
 20
380.378939
 42
0.049915
  0
VERTEX
  8
0
 10
350.419912
 20
380.685604
 42
0.045307
  0
VERTEX
  8
0
 10
349.574959
 20
380.882619
 42
0.042673
  0
VERTEX
  8
0
 10
348.690983
 20
380.929715
 42
0.003282
  0
VERTEX
  8
0
 10
347.224154
 20
380.873019
 42
0.343362
  0
VERTEX
  8
0
 10
347.080266
 20
380.750168
 42
0.352087
  0
VERTEX
  8
0
 10
347.165583
 20
380.584050
 42
0.003353
  0
SEQEND
  0
POLYLINE
  8
0
 66
1
 70
1
  0
VERTEX
  8
0
 10
336.401461
 20
376.840560
 42
0.214175
  0
VERTEX
  8
0
 10
336.359226
 20
376.521481
 42
0.175382
  0
VERTEX
  8
0
 10
336.565966
 20
376.242416
 42
0.098899
  0
VERTEX
  8
0
 10
337.034144
 20
376.050627
 42
0.045827
  0
VERTEX
  8
0
 10
337.690983
 20
375.984687
 42
-0.011801
  0
VERTEX
  8
0
 10
338.696108
 20
375.952447
 42
-0.312363
  0
VERTEX
  8
0
 10
338.897595
 20
375.795688
 42
-0.323649
  0
VERTEX
  8
0
 10
338.818229
 20
375.557730
 42
-0.012279
  0
VERTEX
  8
0
 10
338.000000
 20
375.000000
 42
0.028778
  0
VERTEX
  8
0
 10
337.460273
 20
374.605423
 42
0.142569
  0
VERTEX
  8
0
 10
337.250469
 20
374.297930
 42
0.371875
  0
VERTEX
  8
0
 10
337.333849
 20
374.098796
 42
0.112778
  0
VERTEX
  8
0
 10
337.678571
 20
374.015313
 42
0.091913
  0
VERTEX
  8
0
 10
338.232729
 20
374.110620
 42
0.036592
  0
VERTEX
  8
0
 10
338.937574
 20
374.431135
 42
0.034659
  0
VERTEX
  8
0
 10
339.666773
 20
374.897729
 42
0.036738
  0
VERTEX
  8
0
 10
340.309524
 20
375.452381
 42
-0.030941
  0
VERTEX
  8
0
 10
340.900393
 20
375.974320
 42
-0.047949
  0
VERTEX
  8
0
 10
341.474465
 20
376.338928
 42
-0.061247
  0
VERTEX
  8
0
 10
341.952798
 20
376.512276
 42
-0.258204
  0
VERTEX
  8
0
 10
342.235769
 20
376.430898
 42
0.199629
  0
VERTEX
  8
0
 10
342.557747
 20
376.298050
 42
0.032881
  0
VERTEX
  8
0
 10
343.243097
 20
376.345066
 42
0.031768
  0
VERTEX
  8
0
 10
344.087972
 20
376.514349
 42
0.023267
  0
VERTEX
  8
0
 10
344.999545
 20
376.804128
 42
0.066954
  0
VERTEX
  8
0
 10
345.749234
 20
377.202101
 42
0.623607
  0
VERTEX
  8
0
 10
345.703534
 20
377.474652
 42
0.066341
  0
VERTEX
  8
0
 10
344.719710
 20
377.630377
 42
0.005403
  0
VERTEX
  8
0
 10
342.105207
 20
377.666171
 42
0.015140
  0
VERTEX
  8
0
 10
340.081429
 20
377.610719
 42
0.021523
  0
VERTEX
  8
0
 10
338.291228
 20
377.429814
 42
0.018383
  0
VERTEX
  8
0
 10
336.864940
 20
377.169519
 42
0.202697
  0
SEQEND
  0
POLYLINE
  8
0
 66
1
 70
1
  0
VERTEX
  8
0
 10
766.191984
 20
371.318380
 42
0.033071
  0
VERTEX
  8
0
 10
763.791648
 20
370.286285
 42
0.080347
  0
VERTEX
  8
0
 10
762.241342
 20
369.149875
 42
0.069913
  0
VERTEX
  8
0
 10
761.005695
 20
367.484377
 42
0.020582
  0
VERTEX
  8
0
 10
759.597272
 20
364.624033
 42
0.000000
  0
VERTEX
  8
0
 10
757.310577
 20
359.453410
 42
0.000000
  0
VERTEX
  8
0
 10
747.905289
 20
356.123067
 42
-0.000069
  0
VERTEX
  8
0
 10
743.260348
 20
354.479049
 42
-0.000027
  0
VERTEX
  8
0
 10
736.856554
 20
352.213891
 42
-0.000027
  0
VERTEX
  8
0
 10
729.931891
 20
349.765330
 42
-0.000033
  0
VERTEX
  8
0
 10
723.500000
 20
347.491885
 42
0.000274
  0
VERTEX
  8
0
 10
715.160869
 20
344.539790
 42
0.000059
  0
VERTEX
  8
0
 10
700.715625
 20
339.415285
 42
0.000061
  0
VERTEX
  8
0
 10
683.988305
 20
333.476672
 42
0.000059
  0
VERTEX
  8
0
 10
667.000000
 20
327.440808
 42
-0.001049
  0
VERTEX
  8
0
 10
637.487164
 20
317.020838
 42
-0.007374
  0
VERTEX
  8
0
 10
623.027945
 20
312.188143
 42
-0.013925
  0
VERTEX
  8
0
 10
614.260363
 20
309.667372
 42
-0.063111
  0
VERTEX
  8
0
 10
608.994149
 20
309.000000
 42
-0.064286
  0
VERTEX
  8
0
 10
606.110089
 20
309.372350
 42
-0.068889
  0
VERTEX
  8
0
 10
603.487380
 20
310.463795
 42
-0.081337
  0
VERTEX
  8
0
 10
601.633257
 20
312.007297
 42
-0.180485
  0
VERTEX
  8
0
 10
601.000000
 20
313.704466
 42
-0.072379
  0
VERTEX
  8
0
 10
601.300813
 20
315.771637
 42
-0.000764
  0
VERTEX
  8
0
 10
605.462820
 20
329.691452
 42
-0.002788
  0
VERTEX
  8
0
 10
609.721856
 20
343.575603
 42
-0.004353
  0
VERTEX
  8
0
 10
613.559821
 20
355.478086
 42
0.005320
  0
VERTEX
  8
0
 10
614.424298
 20
358.176912
 42
0.008485
  0
VERTEX
  8
0
 10
615.099313
 20
360.503489
 42
0.003179
  0
VERTEX
  8
0
 10
615.626609
 20
362.493234
 42
0.265511
  0
VERTEX
  8
0
 10
615.546506
 20
362.786827
 42
0.287176
  0
VERTEX
  8
0
 10
615.232260
 20
362.859113
 42
0.000085
  0
VERTEX
  8
0
 10
602.135965
 20
358.323860
 42
0.001377
  0
VERTEX
  8
0
 10
587.581798
 20
353.236030
 42
0.000831
  0
VERTEX
  8
0
 10
570.357925
 20
347.129421
 42
-0.000221
  0
VERTEX
  8
0
 10
518.217586
 20
328.571813
 42
-0.001147
  0
VERTEX
  8
0
 10
489.378850
 20
318.396502
 42
-0.001151
  0
VERTEX
  8
0
 10
470.666617
 20
311.890766
 42
-0.022515
  0
VERTEX
  8
0
 10
464.807180
 20
310.159615
 42
-0.042098
  0
VERTEX
  8
0
 10
457.694396
 20
309.025588
 42
-0.113125
  0
VERTEX
  8
0
 10
452.659815
 20
309.793361
 42
-0.173277
  0
VERTEX
  8
0
 10
449.720216
 20
312.370408
 42
-0.134862
  0
VERTEX
  8
0
 10
448.703646
 20
316.528641
 42
0.123824
  0
VERTEX
  8
0
 10
448.337580
 20
318.180719
 42
0.620020
  0
VERTEX
  8
0
 10
447.639307
 20
318.178153
 42
0.031413
  0
VERTEX
  8
0
 10
446.033078
 20
314.317817
 42
0.002592
  0
VERTEX
  8
0
 10
442.541505
 20
304.000000
 42
0.008693
  0
VERTEX
  8
0
 10
438.809393
 20
292.092825
 42
0.014653
  0
VERTEX
  8
0
 10
436.148607
 20
281.970368
 42
0.017403
  0
VERTEX
  8
0
 10
434.512608
 20
273.596408
 42
0.040225
  0
VERTEX
  8
0
 10
434.015313
 20
267.211275
 42
0.015404
  0
VERTEX
  8
0
 10
434.152029
 20
263.130139
 42
0.080837
  0
VERTEX
  8
0
 10
434.652546
 20
260.949470
 42
0.121066
  0
VERTEX
  8
0
 10
435.720801
 20
259.477850
 42
0.054386
  0
VERTEX
  8
0
 10
437.714306
 20
258.133623
 42
0.083044
  0
VERTEX
  8
0
 10
439.203938
 20
257.641798
 42
0.048837
  0
VERTEX
  8
0
 10
441.081559
 20
257.537309
 42
0.030893
  0
VERTEX
  8
0
 10
443.700924
 20
257.810103
 42
0.008857
  0
VERTEX
  8
0
 10
447.714306
 20
258.553907
 42
0.023315
  0
VERTEX
  8
0
 10
455.550127
 20
260.534590
 42
0.003467
  0
VERTEX
  8
0
 10
471.107070
 20
265.366393
 42
0.004182
  0
VERTEX
  8
0
 10
488.029234
 20
270.907448
 42
0.005908
  0
VERTEX
  8
0
 10
503.000000
 20
276.146285
 42
0.001556
  0
VERTEX
  8
0
 10
520.087852
 20
282.413804
 42
0.001057
  0
VERTEX
  8
0
 10
539.502876
 20
289.650212
 42
0.001064
  0
VERTEX
  8
0
 10
558.537547
 20
296.836964
 42
0.001818
  0
VERTEX
  8
0
 10
574.395056
 20
302.928816
 42
-0.002857
  0
VERTEX
  8
0
 10
582.444234
 20
306.001828
 42
-0.004667
  0
VERTEX
  8
0
 10
589.307417
 20
308.504387
 42
-0.000956
  0
VERTEX
  8
0
 10
595.333974
 20
310.625415
 42
-0.288067
  0
VERTEX
  8
0
 10
595.818544
 20
310.514789
 42
-0.261775
  0
VERTEX
  8
0
 10
595.950959
 20
310.042480
 42
-0.002883
  0
VERTEX
  8
0
 10
595.115092
 20
306.692025
 42
-0.008035
  0
VERTEX
  8
0
 10
594.048675
 20
302.782942
 42
-0.005035
  0
VERTEX
  8
0
 10
592.681761
 20
298.243179
 42
0.007794
  0
VERTEX
  8
0
 10
589.447091
 20
287.281550
 42
0.017507
  0
VERTEX
  8
0
 10
587.416596
 20
278.851036
 42
0.022897
  0
VERTEX
  8
0
 10
586.357588
 20
272.098014
 42
0.040608
  0
VERTEX
  8
0
 10
586.196588
 20
266.469396
 42
0.015666
  0
VERTEX
  8
0
 10
586.461103
 20
263.324228
 42
0.060462
  0
VERTEX
  8
0
 10
586.918518
 20
261.422244
 42
0.086861
  0
VERTEX
  8
0
 10
587.719776
 20
260.054954
 42
0.056972
  0
VERTEX
  8
0
 10
589.054291
 20
258.802688
 42
0.051313
  0
VERTEX
  8
0
 10
590.802630
 20
257.761191
 42
0.102469
  0
VERTEX
  8
0
 10
592.362886
 20
257.395052
 42
0.051451
  0
VERTEX
  8
0
 10
594.560753
 20
257.563608
 42
0.005596
  0
VERTEX
  8
0
 10
599.554291
 20
258.526787
 42
0.027829
  0
VERTEX
  8
0
 10
611.864995
 20
261.767193
 42
0.002669
  0
VERTEX
  8
0
 10
641.313995
 20
271.472783
 42
0.003368
  0
VERTEX
  8
0
 10
670.502480
 20
281.484810
 42
0.015925
  0
VERTEX
  8
0
 10
687.000000
 20
287.865004
 42
-0.008352
  0
VERTEX
  8
0
 10
688.841693
 20
288.609508
 42
-0.000188
  0
VERTEX
  8
0
 10
697.725000
 20
292.025263
 42
-0.000424
  0
VERTEX
  8
0
 10
708.131527
 20
296.012111
 42
-0.000287
  0
VERTEX
  8
0
 10
720.000000
 20
300.539721
 42
0.001944
  0
VERTEX
  8
0
 10
731.774984
 20
305.076436
 42
0.003027
  0
VERTEX
  8
0
 10
741.884573
 20
309.087375
 42
0.000889
  0
VERTEX
  8
0
 10
750.634426
 20
312.638408
 42
0.100032
  0
VERTEX
  8
0
 10
751.670888
 20
313.327447
 42
0.113208
  0
VERTEX
  8
0
 10
752.315390
 20
314.357199
 42
0.001514
  0
VERTEX
  8
0
 10
754.767726
 20
321.499313
 42
0.004230
  0
VERTEX
  8
0
 10
757.522826
 20
329.833679
 42
0.002756
  0
VERTEX
  8
0
 10
760.569088
 20
339.500000
 42
-0.001692
  0
VERTEX
  8
0
 10
763.661147
 20
349.384954
 42
-0.002210
  0
VERTEX
  8
0
 10
766.560029
 20
358.404688
 42
-0.001633
  0
VERTEX
  8
0
 10
769.047225
 20
365.944059
 42
-0.020489
  0
VERTEX
  8
0
 10
770.112662
 20
368.750000
 42
0.009827
  0
VERTEX
  8
0
 10
771.387864
 20
371.904076
 42
0.352446
  0
VERTEX
  8
0
 10
771.161168
 20
372.604178
 42
0.228652
  0
VERTEX
  8
0
 10
770.286275
 20
372.718885
 42
0.005188
  0
SEQEND
  0
POLYLINE
  8
0
 66
1
 70
1
  0
VERTEX
  8
0
 10
529.000000
 20
260.856433
 42
0.002290
  0
VERTEX
  8
0
 10
522.235960
 20
258.492229
 42
0.003529
  0
VERTEX
  8
0
 10
516.409760
 20
256.379423
 42
0.001180
  0
VERTEX
  8
0
 10
511.396919
 20
254.507972
 42
0.101044
  0
VERTEX
  8
0
 10
510.714076
 20
254.078845
 42
0.140114
  0
VERTEX
  8
0
 10
509.386547
 20
251.812624
 42
0.002021
  0
VERTEX
  8
0
 10
505.520562
 20
236.509270
 42
0.001348
  0
VERTEX
  8
0
 10
501.685756
 20
220.886775
 42
0.598471
  0
VERTEX
  8
0
 10
502.328654
 20
220.311180
 42
-0.006165
  0
VERTEX
  8
0
 10
503.209514
 20
220.618852
 42
-0.000094
  0
VERTEX
  8
0
 10
508.340796
 20
222.339377
 42
-0.000252
  0
VERTEX
  8
0
 10
514.301565
 20
224.333443
 42
-0.000167
  0
VERTEX
  8
0
 10
521.150653
 20
226.618296
 42
0.000000
  0
VERTEX
  8
0
 10
538.801305
 20
232.500000
 42
0.000000
  0
VERTEX
  8
0
 10
543.405294
 20
249.000000
 42
0.000861
  0
VERTEX
  8
0
 10
546.644541
 20
260.686707
 42
0.014393
  0
VERTEX
  8
0
 10
547.600473
 20
264.595020
 42
0.052359
  0
VERTEX
  8
0
 10
547.797078
 20
266.434547
 42
0.437687
  0
VERTEX
  8
0
 10
547.250000
 20
266.941664
 42
0.060770
  0
VERTEX
  8
0
 10
546.680579
 20
266.826820
 42
0.000359
  0
VERTEX
  8
0
 10
541.579687
 20
265.130064
 42
0.001502
  0
VERTEX
  8
0
 10
535.762147
 20
263.170840
 42
0.000955
  0
SEQEND
  0
POLYLINE
  8
0
 66
1
 70
1
  0
VERTEX
  8
0
 10
756.943341
 20
211.352220
 42
-0.149298
  0
VERTEX
  8
0
 10
757.367987
 20
210.947848
 42
-0.029624
  0
VERTEX
  8
0
 10
757.833754
 20
209.993917
 42
-0.028971
  0
VERTEX
  8
0
 10
758.260608
 20
208.775824
 42
-0.023426
  0
VERTEX
  8
0
 10
758.579631
 20
207.427220
 42
0.022152
  0
VERTEX
  8
0
 10
758.886724
 20
206.114139
 42
0.033372
  0
VERTEX
  8
0
 10
759.279396
 20
205.006746
 42
0.035427
  0
VERTEX
  8
0
 10
759.695843
 20
204.203501
 42
0.261120
  0
VERTEX
  8
0
 10
760.058943
 20
204.000000
 42
0.493723
  0
VERTEX
  8
0
 10
760.577594
 20
204.677221
 42
0.025450
  0
VERTEX
  8
0
 10
759.590943
 20
207.709816
 42
0.024025
  0
VERTEX
  8
0
 10
758.242547
 20
210.782933
 42
0.233595
  0
VERTEX
  8
0
 10
757.143856
 20
211.618715
 42
0.015305
  0
VERTEX
  8
0
 10
756.716609
 20
211.687993
 42
0.270281
  0
VERTEX
  8
0
 10
756.592489
 20
211.635837
 42
0.442658
  0
VERTEX
  8
0
 10
756.611440
 20
211.536448
 42
0.021097
  0
SEQEND
  0
POLYLINE
  8
0
 66
1
 70
1
  0
VERTEX
  8
0
 10
753.335833
 20
205.432783
 42
0.062239
  0
VERTEX
  8
0
 10
753.171613
 20
204.767743
 42
0.058096
  0
VERTEX
  8
0
 10
753.170413
 20
204.066618
 42
0.062267
  0
VERTEX
  8
0
 10
753.323813
 20
203.436283
 42
0.105970
  0
VERTEX
  8
0
 10
753.617217
 20
202.982783
 42
0.220081
  0
VERTEX
  8
0
 10
753.958666
 20
202.857314
 42
0.249147
  0
VERTEX
  8
0
 10
754.250000
 20
203.043829
 42
0.097587
  0
VERTEX
  8
0
 10
754.442885
 20
203.628964
 42
0.030976
  0
VERTEX
  8
0
 10
754.500000
 20
204.550000
 42
0.008963
  0
VERTEX
  8
0
 10
754.466225
 20
206.434077
 42
0.225236
  0
VERTEX
  8
0
 10
754.234358
 20
206.880617
 42
0.479197
  0
VERTEX
  8
0
 10
753.912795
 20
206.800238
 42
0.016429
  0
SEQEND
  0
POLYLINE
  8
0
 66
1
 70
1
  0
VERTEX
  8
0
 10
720.157297
 20
203.500000
 42
0.064422
  0
VERTEX
  8
0
 10
720.229743
 20
202.916497
 42
0.009444
  0
VERTEX
  8
0
 10
720.549595
 20
201.765625
 42
0.010537
  0
VERTEX
  8
0
 10
720.984322
 20
200.413345
 42
0.008870
  0
VERTEX
  8
0
 10
721.500000
 20
199.000000
 42
0.013736
  0
VERTEX
  8
0
 10
722.022262
 20
197.747533
 42
0.045293
  0
VERTEX
  8
0
 10
722.461014
 20
196.968750
 42
0.253165
  0
VERTEX
  8
0
 10
722.717501
 20
196.838042
 42
0.401021
  0
VERTEX
  8
0
 10
722.878818
 20
197.000000
 42
0.060302
  0
VERTEX
  8
0
 10
722.801227
 20
197.774793
 42
0.017427
  0
VERTEX
  8
0
 10
722.497176
 20
198.940625
 42
0.017255
  0
VERTEX
  8
0
 10
722.059650
 20
200.241381
 42
0.017606
  0
VERTEX
  8
0
 10
721.536115
 20
201.500000
 42
0.011826
  0
VERTEX
  8
0
 10
721.006842
 20
202.587205
 42
0.031732
  0
VERTEX
  8
0
 10
720.564445
 20
203.325000
 42
0.108108
  0
VERTEX
  8
0
 10
720.294386
 20
203.577512
 42
0.579924
  0
SEQEND
  0
POLYLINE
  8
0
 66
1
 70
1
  0
VERTEX
  8
0
 10
726.750000
 20
200.968838
 42
-0.042713
  0
VERTEX
  8
0
 10
727.610884
 20
200.534176
 42
-0.049734
  0
VERTEX
  8
0
 10
728.339062
 20
199.977939
 42
-0.056783
  0
VERTEX
  8
0
 10
728.840026
 20
199.389943
 42
-0.149142
  0
VERTEX
  8
0
 10
729.000000
 20
198.865558
 42
0.053801
  0
VERTEX
  8
0
 10
729.044873
 20
198.449737
 42
0.161919
  0
VERTEX
  8
0
 10
729.188735
 20
198.207575
 42
0.257596
  0
VERTEX
  8
0
 10
729.398627
 20
198.162956
 42
0.123278
  0
VERTEX
  8
0
 10
729.642501
 20
198.309167
 42
0.311140
  0
VERTEX
  8
0
 10
729.812714
 20
199.233494
 42
0.087338
  0
VERTEX
  8
0
 10
728.944257
 20
200.515487
 42
0.073648
  0
VERTEX
  8
0
 10
727.525519
 20
201.603266
 42
0.137358
  0
VERTEX
  8
0
 10
726.127555
 20
201.936614
 42
0.047797
  0
VERTEX
  8
0
 10
725.531629
 20
201.856007
 42
0.518195
  0
VERTEX
  8
0
 10
725.454773
 20
201.666147
 42
0.142603
  0
VERTEX
  8
0
 10
725.770360
 20
201.391614
 42
0.012615
  0
SEQEND
  0
POLYLINE
  8
0
 66
1
 70
1
  0
VERTEX
  8
0
 10
738.085598
 20
201.000000
 42
0.053798
  0
VERTEX
  8
0
 10
738.134067
 20
200.317134
 42
0.029384
  0
VERTEX
  8
0
 10
738.331527
 20
199.500000
 42
0.028934
  0
VERTEX
  8
0
 10
738.632796
 20
198.684071
 42
0.040566
  0
VERTEX
  8
0
 10
739.000000
 20
198.000000
 42
0.095694
  0
VERTEX
  8
0
 10
739.592871
 20
197.381869
 42
0.608383
  0
VERTEX
  8
0
 10
739.885992
 20
197.533606
 42
0.081911
  0
VERTEX
  8
0
 10
739.695838
 20
198.686554
 42
0.019739
  0
VERTEX
  8
0
 10
739.000000
 20
200.500000
 42
0.014925
  0
VERTEX
  8
0
 10
738.608071
 20
201.341871
 42
0.152377
  0
VERTEX
  8
0
 10
738.343886
 20
201.615423
 42
0.491407
  0
VERTEX
  8
0
 10
738.161267
 20
201.535375
 42
0.051935
  0
SEQEND
  0
POLYLINE
  8
0
 66
1
 70
1
  0
VERTEX
  8
0
 10
710.500000
 20
196.000000
 42
0.029505
  0
VERTEX
  8
0
 10
710.768994
 20
195.617226
 42
0.035638
  0
VERTEX
  8
0
 10
711.066025
 20
195.293750
 42
0.038439
  0
VERTEX
  8
0
 10
711.348290
 20
195.065539
 42
0.151918
  0
VERTEX
  8
0
 10
711.559017
 20
195.000000
 42
0.210953
  0
VERTEX
  8
0
 10
711.727648
 20
195.074460
 42
0.081139
  0
VERTEX
  8
0
 10
711.870461
 20
195.293750
 42
0.061769
  0
VERTEX
  8
0
 10
711.967655
 20
195.617151
 42
0.042167
  0
VERTEX
  8
0
 10
712.000000
 20
196.000000
 42
0.105053
  0
VERTEX
  8
0
 10
711.918938
 20
196.381556
 42
0.099167
  0
VERTEX
  8
0
 10
711.688914
 20
196.706250
 42
0.096420
  0
VERTEX
  8
0
 10
711.345238
 20
196.923877
 42
0.093332
  0
VERTEX
  8
0
 10
710.940983
 20
197.000000
 42
0.108972
  0
VERTEX
  8
0
 10
710.586039
 20
196.921712
 42
0.182303
  0
VERTEX
  8
0
 10
710.374600
 20
196.706250
 42
0.161196
  0
VERTEX
  8
0
 10
710.343488
 20
196.382100
 42
0.082592
  0
SEQEND
  0
POLYLINE
  8
0
 66
1
 70
1
  0
VERTEX
  8
0
 10
713.256735
 20
190.000000
 42
0.101374
  0
VERTEX
  8
0
 10
713.555623
 20
189.409043
 42
0.065182
  0
VERTEX
  8
0
 10
714.108748
 20
188.872368
 42
0.061690
  0
VERTEX
  8
0
 10
714.819363
 20
188.468413
 42
0.068372
  0
VERTEX
  8
0
 10
715.582866
 20
188.267634
 42
0.006534
  0
VERTEX
  8
0
 10
716.490352
 20
188.169657
 42
0.218072
  0
VERTEX
  8
0
 10
716.691806
 20
188.239775
 42
0.524627
  0
VERTEX
  8
0
 10
716.671400
 20
188.366320
 42
0.011419
  0
VERTEX
  8
0
 10
716.000000
 20
188.667578
 42
-0.035522
  0
VERTEX
  8
0
 10
715.365226
 20
188.989982
 42
-0.024796
  0
VERTEX
  8
0
 10
714.697949
 20
189.437289
 42
-0.025114
  0
VERTEX
  8
0
 10
714.098052
 20
189.932752
 42
-0.046559
  0
VERTEX
  8
0
 10
713.673869
 20
190.399944
 42
0.023327
  0
VERTEX
  8
0
 10
713.325275
 20
190.821640
 42
0.422126
  0
VERTEX
  8
0
 10
713.167397
 20
190.827090
 42
0.258208
  0
VERTEX
  8
0
 10
713.105933
 20
190.629137
 42
0.015469
  0
SEQEND
  0
POLYLINE
  8
0
 66
1
 70
1
  0
VERTEX
  8
0
 10
703.500000
 20
189.000000
 42
0.029505
  0
VERTEX
  8
0
 10
703.768994
 20
188.617226
 42
0.035638
  0
VERTEX
  8
0
 10
704.066025
 20
188.293750
 42
0.038439
  0
VERTEX
  8
0
 10
704.348290
 20
188.065539
 42
0.151918
  0
VERTEX
  8
0
 10
704.559017
 20
188.000000
 42
0.210953
  0
VERTEX
  8
0
 10
704.727648
 20
188.074460
 42
0.081139
  0
VERTEX
  8
0
 10
704.870461
 20
188.293750
 42
0.061769
  0
VERTEX
  8
0
 10
704.967655
 20
188.617151
 42
0.042167
  0
VERTEX
  8
0
 10
705.000000
 20
189.000000
 42
0.105053
  0
VERTEX
  8
0
 10
704.918938
 20
189.381556
 42
0.099167
  0
VERTEX
  8
0
 10
704.688914
 20
189.706250
 42
0.096420
  0
VERTEX
  8
0
 10
704.345238
 20
189.923877
 42
0.093332
  0
VERTEX
  8
0
 10
703.940983
 20
190.000000
 42
0.108972
  0
VERTEX
  8
0
 10
703.586039
 20
189.921712
 42
0.182303
  0
VERTEX
  8
0
 10
703.374600
 20
189.706250
 42
0.161196
  0
VERTEX
  8
0
 10
703.343488
 20
189.382100
 42
0.082592
  0
SEQEND
  0
POLYLINE
  8
0
 66
1
 70
1
  0
VERTEX
  8
0
 10
683.000000
 20
186.606989
 42
0.225200
  0
VERTEX
  8
0
 10
683.088769
 20
186.419896
 42
0.029412
  0
VERTEX
  8
0
 10
683.455882
 20
186.154486
 42
0.029555
  0
VERTEX
  8
0
 10
683.957462
 20
185.875192
 42
0.020646
  0
VERTEX
  8
0
 10
684.551938
 20
185.618443
 42
0.036408
  0
VERTEX
  8
0
 10
685.131719
 20
185.443138
 42
0.155351
  0
VERTEX
  8
0
 10
685.487528
 20
185.474315
 42
0.329480
  0
VERTEX
  8
0
 10
685.606889
 20
185.674071
 42
0.114400
  0
VERTEX
  8
0
 10
685.492921
 20
186.011454
 42
0.115814
  0
VERTEX
  8
0
 10
684.901891
 20
186.603931
 42
0.080554
  0
VERTEX
  8
0
 10
684.026239
 20
186.969265
 42
0.115534
  0
VERTEX
  8
0
 10
683.291154
 20
186.972535
 42
0.349578
  0
SEQEND
  0
POLYLINE
  8
0
 66
1
 70
1
  0
VERTEX
  8
0
 10
698.267634
 20
185.582866
 42
0.068372
  0
VERTEX
  8
0
 10
698.468413
 20
184.819363
 42
0.061690
  0
VERTEX
  8
0
 10
698.872368
 20
184.108748
 42
0.065182
  0
VERTEX
  8
0
 10
699.409043
 20
183.555623
 42
0.101374
  0
VERTEX
  8
0
 10
700.000000
 20
183.256735
 42
0.015469
  0
VERTEX
  8
0
 10
700.629137
 20
183.105933
 42
0.258208
  0
VERTEX
  8
0
 10
700.827090
 20
183.167397
 42
0.422126
  0
VERTEX
  8
0
 10
700.821640
 20
183.325275
 42
0.023327
  0
VERTEX
  8
0
 10
700.399944
 20
183.673869
 42
-0.046559
  0
VERTEX
  8
0
 10
699.932752
 20
184.098052
 42
-0.025114
  0
VERTEX
  8
0
 10
699.437289
 20
184.697949
 42
-0.024796
  0
VERTEX
  8
0
 10
698.989982
 20
185.365226
 42
-0.035522
  0
VERTEX
  8
0
 10
698.667578
 20
186.000000
 42
0.011419
  0
VERTEX
  8
0
 10
698.366320
 20
186.671400
 42
0.524627
  0
VERTEX
  8
0
 10
698.239775
 20
186.691806
 42
0.218072
  0
VERTEX
  8
0
 10
698.169657
 20
186.490352
 42
0.006534
  0
SEQEND
  0
POLYLINE
  8
0
 66
1
 70
1
  0
VERTEX
  8
0
 10
679.000000
 20
182.000000
 42
0.018122
  0
VERTEX
  8
0
 10
679.446431
 20
181.233921
 42
0.025446
  0
VERTEX
  8
0
 10
679.902822
 20
180.587500
 42
0.023718
  0
VERTEX
  8
0
 10
680.316932
 20
180.108693
 42
0.205392
  0
VERTEX
  8
0
 10
680.570368
 20
180.000000
 42
0.439016
  0
VERTEX
  8
0
 10
680.692263
 20
180.132581
 42
0.048507
  0
VERTEX
  8
0
 10
680.609072
 20
180.587500
 42
0.035050
  0
VERTEX
  8
0
 10
680.375169
 20
181.232522
 42
0.018363
  0
VERTEX
  8
0
 10
680.000000
 20
182.000000
 42
0.018122
  0
VERTEX
  8
0
 10
679.553569
 20
182.766079
 42
0.025446
  0
VERTEX
  8
0
 10
679.097178
 20
183.412500
 42
0.023718
  0
VERTEX
  8
0
 10
678.683068
 20
183.891307
 42
0.205392
  0
VERTEX
  8
0
 10
678.429632
 20
184.000000
 42
0.439016
  0
VERTEX
  8
0
 10
678.307737
 20
183.867419
 42
0.048507
  0
VERTEX
  8
0
 10
678.390928
 20
183.412500
 42
0.035050
  0
VERTEX
  8
0
 10
678.624831
 20
182.767478
 42
0.018363
  0
SEQEND
  0
POLYLINE
  8
0
 66
1
 70
1
  0
VERTEX
  8
0
 10
683.157895
 20
182.000000
 42
0.017491
  0
VERTEX
  8
0
 10
683.189089
 20
181.108560
 42
0.078554
  0
VERTEX
  8
0
 10
683.306058
 20
180.601562
 42
0.447206
  0
VERTEX
  8
0
 10
683.474999
 20
180.540618
 42
0.174857
  0
VERTEX
  8
0
 10
683.662281
 20
180.750000
 42
0.057986
  0
VERTEX
  8
0
 10
683.818615
 20
181.320008
 42
0.037979
  0
VERTEX
  8
0
 10
683.870340
 20
182.000000
 42
0.037979
  0
VERTEX
  8
0
 10
683.818615
 20
182.679992
 42
0.057986
  0
VERTEX
  8
0
 10
683.662281
 20
183.250000
 42
0.174857
  0
VERTEX
  8
0
 10
683.474999
 20
183.459382
 42
0.447206
  0
VERTEX
  8
0
 10
683.306058
 20
183.398438
 42
0.078554
  0
VERTEX
  8
0
 10
683.189089
 20
182.891440
 42
0.017491
  0
SEQEND
  0
POLYLINE
  8
0
 66
1
 70
1
  0
VERTEX
  8
0
 10
689.600000
 20
181.400000
 42
0.033304
  0
VERTEX
  8
0
 10
689.389096
 20
180.717782
 42
0.041541
  0
VERTEX
  8
0
 10
689.289877
 20
180.062207
 42
0.046650
  0
VERTEX
  8
0
 10
689.304005
 20
179.520191
 42
0.168083
  0
VERTEX
  8
0
 10
689.452923
 20
179.213744
 42
0.291964
  0
VERTEX
  8
0
 10
689.695170
 20
179.160268
 42
0.113310
  0
VERTEX
  8
0
 10
689.996127
 20
179.355957
 42
0.066301
  0
VERTEX
  8
0
 10
690.316012
 20
179.789020
 42
0.034360
  0
VERTEX
  8
0
 10
690.600000
 20
180.400000
 42
0.033304
  0
VERTEX
  8
0
 10
690.810904
 20
181.082218
 42
0.041541
  0
VERTEX
  8
0
 10
690.910123
 20
181.737793
 42
0.046650
  0
VERTEX
  8
0
 10
690.895995
 20
182.279809
 42
0.168083
  0
VERTEX
  8
0
 10
690.747077
 20
182.586256
 42
0.291964
  0
VERTEX
  8
0
 10
690.504830
 20
182.639732
 42
0.113310
  0
VERTEX
  8
0
 10
690.203873
 20
182.444043
 42
0.066301
  0
VERTEX
  8
0
 10
689.883988
 20
182.010980
 42
0.034360
  0
SEQEND
  0
POLYLINE
  8
0
 66
1
 70
1
  0
VERTEX
  8
0
 10
681.603006
 20
177.833333
 42
0.071639
  0
VERTEX
  8
0
 10
681.869696
 20
177.514519
 42
0.052880
  0
VERTEX
  8
0
 10
682.243158
 20
177.244792
 42
0.053298
  0
VERTEX
  8
0
 10
682.660916
 20
177.061561
 42
0.076861
  0
VERTEX
  8
0
 10
683.059017
 20
177.000000
 42
0.087308
  0
VERTEX
  8
0
 10
683.418314
 20
177.063221
 42
0.094392
  0
VERTEX
  8
0
 10
683.723586
 20
177.244792
 42
0.100145
  0
VERTEX
  8
0
 10
683.927786
 20
177.515437
 42
0.112153
  0
VERTEX
  8
0
 10
684.000000
 20
177.833333
 42
0.170324
  0
VERTEX
  8
0
 10
683.888458
 20
178.151276
 42
0.094314
  0
VERTEX
  8
0
 10
683.572297
 20
178.421875
 42
0.074868
  0
VERTEX
  8
0
 10
683.100961
 20
178.604892
 42
0.055286
  0
VERTEX
  8
0
 10
682.543989
 20
178.666667
 42
0.057730
  0
VERTEX
  8
0
 10
682.023273
 20
178.606344
 42
0.124167
  0
VERTEX
  8
0
 10
681.666970
 20
178.421875
 42
0.190804
  0
VERTEX
  8
0
 10
681.528782
 20
178.149103
 42
0.162770
  0
SEQEND
  0
ENDSEC
  0
EOF
